<mxfile host="app.diagrams.net" modified="2023-06-02T09:35:24.681Z" agent="Mozilla/5.0 (Windows NT 10.0; Win64; x64) AppleWebKit/537.36 (KHTML, like Gecko) Chrome/113.0.0.0 Safari/537.36" etag="oZamf4F020QuEGPWncpB" version="21.2.3" type="github">
  <diagram name="第 1 页" id="-C-PnkX27SFlWRoyu6AZ">
    <mxGraphModel dx="3404" dy="2084" grid="1" gridSize="10" guides="1" tooltips="1" connect="1" arrows="1" fold="1" page="1" pageScale="1" pageWidth="827" pageHeight="1169" math="0" shadow="0">
      <root>
        <mxCell id="0" />
        <mxCell id="1" parent="0" />
        <UserObject label="" plantUmlData="{&quot;data&quot;:&quot;@startuml\n\nactor \&quot;用户/管理员\&quot; as user\n\npackage \&quot;工单管理\&quot; {\n  [添加工单]\n  [查询工单]\n  [查询所有工单]\n  [删除工单]\n  [批量删除工单]\n  [更新工单]\n}\n\npackage \&quot;歌单管理\&quot; {\n  [添加歌单]\n  [查询所有歌单]\n  [获取歌单数量]\n  [删除歌单]\n  [批量删除歌单]\n  [查询指定用户的所有歌单]\n  [随机获得n个歌单]\n  [更新歌单]\n  [根据歌单风格模糊查询]\n  [根据歌单名称模糊查询]\n}\n\npackage \&quot;歌手管理\&quot; {\n  [查询歌手]\n  [添加歌手]\n  [查询所有歌手]\n  [获取歌手总数]\n  [删除歌手]\n  [批量删除歌手]\n  [根据姓名查询歌手]\n  [根据性别查询歌手]\n  [根据地区获得歌手数量]\n  [根据性别统计歌手数量]\n  [随机获得n个歌手]\n  [根据歌手名模糊查询歌手]\n  [更新歌手]\n}\n\npackage \&quot;歌单歌曲管理\&quot; {\n  [添加歌曲到歌单中]\n  [删除指定歌单里面的指定歌曲,并更新歌单封面]\n  [查询歌单表里指定歌单ID的所有歌曲]\n  [更新歌单歌曲信息]\n}\n\npackage \&quot;歌曲管理\&quot; {\n  [添加歌曲]\n  [查询所有歌曲]\n  [获取歌曲总数]\n  [删除歌曲]\n  [批量删除歌曲]\n  [查询歌曲]\n  [查询播放次数前n的歌曲]\n  [播放歌曲并更新播放次数]\n  [根据歌曲名字模糊查询歌曲]\n  [查询指定歌手的所有歌曲]\n  [查询指定歌手名的所有歌曲]\n  [查询指定歌曲名的所有歌曲]\n  [更新歌手]\n}\n\npackage \&quot;用户管理\&quot; {\n  [添加用户]\n  [查询所有用户]\n  [获得用户总数]\n  [删除用户]\n  [批量删除用户]\n  [查询用户]\n  [根据性别获取用户个数]\n  [用户注册]\n  [用户登录]\n  [退出登录]\n  [更新用户]\n}\n\npackage \&quot;评论管理\&quot; {\n  [添加评论]\n  [查询所有评论]\n  [删除评论]\n  [批量删除评论]\n  [查询指定歌曲下的评论]\n  [查询指定歌单下的评论]\n  [更新评论]\n}\n\nuser --&gt; \&quot;工单管理\&quot;\nuser --&gt; \&quot;歌单管理\&quot;\nuser --&gt; \&quot;歌手管理\&quot;\nuser --&gt; \&quot;歌单歌曲管理\&quot;\nuser --&gt; \&quot;歌曲管理\&quot;\nuser --&gt; \&quot;用户管理\&quot;\nuser --&gt; \&quot;评论管理\&quot;\n\n@enduml&quot;,&quot;format&quot;:&quot;svg&quot;}" id="mDu3-5T3jqeVfYkN5IIC-1">
          <mxCell style="shape=image;noLabel=1;verticalAlign=top;aspect=fixed;imageAspect=0;image=data:image/svg+xml,PD94bWwgdmVyc2lvbj0iMS4wIiBlbmNvZGluZz0idXMtYXNjaWkiIHN0YW5kYWxvbmU9Im5vIj8+PHN2ZyB4bWxucz0iaHR0cDovL3d3dy53My5vcmcvMjAwMC9zdmciIHhtbG5zOnhsaW5rPSJodHRwOi8vd3d3LnczLm9yZy8xOTk5L3hsaW5rIiBjb250ZW50U3R5bGVUeXBlPSJ0ZXh0L2NzcyIgaGVpZ2h0PSI5NDFweCIgcHJlc2VydmVBc3BlY3RSYXRpbz0ibm9uZSIgc3R5bGU9IndpZHRoOjQwMjNweDtoZWlnaHQ6OTQxcHg7YmFja2dyb3VuZDojRkZGRkZGOyIgdmVyc2lvbj0iMS4xIiB2aWV3Qm94PSIwIDAgNDAyMyA5NDEiIHdpZHRoPSI0MDIzcHgiIHpvb21BbmRQYW49Im1hZ25pZnkiPjxkZWZzLz48Zz48IS0tY2x1c3RlciA/Pz8/LS0+PGcgaWQ9ImNsdXN0ZXJfJiMyNDAzNzsmIzIxMzMzOyYjMzE2NDk7JiMyOTcwMjsiPjxwYXRoIGQ9Ik02OS41LDEwNC41IEwxMjYuNSwxMDQuNSBBMy43NSwzLjc1IDAgMCAxIDEyOSwxMDcgTDEzNiwxMjUuNDg0NCBMNTE3LjUsMTI1LjQ4NDQgQTIuNSwyLjUgMCAwIDEgNTIwLDEyNy45ODQ0IEw1MjAsMzE3IEEyLjUsMi41IDAgMCAxIDUxNy41LDMxOS41IEw2OS41LDMxOS41IEEyLjUsMi41IDAgMCAxIDY3LDMxNyBMNjcsMTA3IEEyLjUsMi41IDAgMCAxIDY5LjUsMTA0LjUgIiBmaWxsPSJub25lIiBzdHlsZT0ic3Ryb2tlOiMwMDAwMDA7c3Ryb2tlLXdpZHRoOjEuNTsiLz48bGluZSBzdHlsZT0ic3Ryb2tlOiMwMDAwMDA7c3Ryb2tlLXdpZHRoOjEuNTsiIHgxPSI2NyIgeDI9IjEzNiIgeTE9IjEyNS40ODQ0IiB5Mj0iMTI1LjQ4NDQiLz48dGV4dCBmaWxsPSIjMDAwMDAwIiBmb250LWZhbWlseT0ic2Fucy1zZXJpZiIgZm9udC1zaXplPSIxNCIgZm9udC13ZWlnaHQ9ImJvbGQiIGxlbmd0aEFkanVzdD0ic3BhY2luZyIgdGV4dExlbmd0aD0iNTYiIHg9IjcxIiB5PSIxMTkuNzM0NCI+JiMyNDAzNzsmIzIxMzMzOyYjMzE2NDk7JiMyOTcwMjs8L3RleHQ+PC9nPjwhLS1jbHVzdGVyID8/Pz8tLT48ZyBpZD0iY2x1c3Rlcl8mIzI3NDY4OyYjMjEzMzM7JiMzMTY0OTsmIzI5NzAyOyI+PHBhdGggZD0iTTY4MC41LDEwNC41IEw3MzcuNSwxMDQuNSBBMy43NSwzLjc1IDAgMCAxIDc0MCwxMDcgTDc0NywxMjUuNDg0NCBMMTM5Ni41LDEyNS40ODQ0IEEyLjUsMi41IDAgMCAxIDEzOTksMTI3Ljk4NDQgTDEzOTksNDY3IEEyLjUsMi41IDAgMCAxIDEzOTYuNSw0NjkuNSBMNjgwLjUsNDY5LjUgQTIuNSwyLjUgMCAwIDEgNjc4LDQ2NyBMNjc4LDEwNyBBMi41LDIuNSAwIDAgMSA2ODAuNSwxMDQuNSAiIGZpbGw9Im5vbmUiIHN0eWxlPSJzdHJva2U6IzAwMDAwMDtzdHJva2Utd2lkdGg6MS41OyIvPjxsaW5lIHN0eWxlPSJzdHJva2U6IzAwMDAwMDtzdHJva2Utd2lkdGg6MS41OyIgeDE9IjY3OCIgeDI9Ijc0NyIgeTE9IjEyNS40ODQ0IiB5Mj0iMTI1LjQ4NDQiLz48dGV4dCBmaWxsPSIjMDAwMDAwIiBmb250LWZhbWlseT0ic2Fucy1zZXJpZiIgZm9udC1zaXplPSIxNCIgZm9udC13ZWlnaHQ9ImJvbGQiIGxlbmd0aEFkanVzdD0ic3BhY2luZyIgdGV4dExlbmd0aD0iNTYiIHg9IjY4MiIgeT0iMTE5LjczNDQiPiYjMjc0Njg7JiMyMTMzMzsmIzMxNjQ5OyYjMjk3MDI7PC90ZXh0PjwvZz48IS0tY2x1c3RlciA/Pz8/LS0+PGcgaWQ9ImNsdXN0ZXJfJiMyNzQ2ODsmIzI1MTYzOyYjMzE2NDk7JiMyOTcwMjsiPjxwYXRoIGQ9Ik0xNDQxLjUsMTA0LjUgTDE0OTguNSwxMDQuNSBBMy43NSwzLjc1IDAgMCAxIDE1MDEsMTA3IEwxNTA4LDEyNS40ODQ0IEwyMjk3LjUsMTI1LjQ4NDQgQTIuNSwyLjUgMCAwIDEgMjMwMCwxMjcuOTg0NCBMMjMwMCw1NzIgQTIuNSwyLjUgMCAwIDEgMjI5Ny41LDU3NC41IEwxNDQxLjUsNTc0LjUgQTIuNSwyLjUgMCAwIDEgMTQzOSw1NzIgTDE0MzksMTA3IEEyLjUsMi41IDAgMCAxIDE0NDEuNSwxMDQuNSAiIGZpbGw9Im5vbmUiIHN0eWxlPSJzdHJva2U6IzAwMDAwMDtzdHJva2Utd2lkdGg6MS41OyIvPjxsaW5lIHN0eWxlPSJzdHJva2U6IzAwMDAwMDtzdHJva2Utd2lkdGg6MS41OyIgeDE9IjE0MzkiIHgyPSIxNTA4IiB5MT0iMTI1LjQ4NDQiIHkyPSIxMjUuNDg0NCIvPjx0ZXh0IGZpbGw9IiMwMDAwMDAiIGZvbnQtZmFtaWx5PSJzYW5zLXNlcmlmIiBmb250LXNpemU9IjE0IiBmb250LXdlaWdodD0iYm9sZCIgbGVuZ3RoQWRqdXN0PSJzcGFjaW5nIiB0ZXh0TGVuZ3RoPSI1NiIgeD0iMTQ0MyIgeT0iMTE5LjczNDQiPiYjMjc0Njg7JiMyNTE2MzsmIzMxNjQ5OyYjMjk3MDI7PC90ZXh0PjwvZz48IS0tY2x1c3RlciA/Pz8/Pz8tLT48ZyBpZD0iY2x1c3Rlcl8mIzI3NDY4OyYjMjEzMzM7JiMyNzQ2ODsmIzI2MzU0OyYjMzE2NDk7JiMyOTcwMjsiPjxwYXRoIGQ9Ik04LjUsMzU5LjUgTDkzLjUsMzU5LjUgQTMuNzUsMy43NSAwIDAgMSA5NiwzNjIgTDEwMywzODAuNDg0NCBMNTg1LjUsMzgwLjQ4NDQgQTIuNSwyLjUgMCAwIDEgNTg4LDM4Mi45ODQ0IEw1ODgsNTcyIEEyLjUsMi41IDAgMCAxIDU4NS41LDU3NC41IEw4LjUsNTc0LjUgQTIuNSwyLjUgMCAwIDEgNiw1NzIgTDYsMzYyIEEyLjUsMi41IDAgMCAxIDguNSwzNTkuNSAiIGZpbGw9Im5vbmUiIHN0eWxlPSJzdHJva2U6IzAwMDAwMDtzdHJva2Utd2lkdGg6MS41OyIvPjxsaW5lIHN0eWxlPSJzdHJva2U6IzAwMDAwMDtzdHJva2Utd2lkdGg6MS41OyIgeDE9IjYiIHgyPSIxMDMiIHkxPSIzODAuNDg0NCIgeTI9IjM4MC40ODQ0Ii8+PHRleHQgZmlsbD0iIzAwMDAwMCIgZm9udC1mYW1pbHk9InNhbnMtc2VyaWYiIGZvbnQtc2l6ZT0iMTQiIGZvbnQtd2VpZ2h0PSJib2xkIiBsZW5ndGhBZGp1c3Q9InNwYWNpbmciIHRleHRMZW5ndGg9Ijg0IiB4PSIxMCIgeT0iMzc0LjczNDQiPiYjMjc0Njg7JiMyMTMzMzsmIzI3NDY4OyYjMjYzNTQ7JiMzMTY0OTsmIzI5NzAyOzwvdGV4dD48L2c+PCEtLWNsdXN0ZXIgPz8/Py0tPjxnIGlkPSJjbHVzdGVyXyYjMjc0Njg7JiMyNjM1NDsmIzMxNjQ5OyYjMjk3MDI7Ij48cGF0aCBkPSJNMjM0Mi41LDM1OS41IEwyMzk5LjUsMzU5LjUgQTMuNzUsMy43NSAwIDAgMSAyNDAyLDM2MiBMMjQwOSwzODAuNDg0NCBMMzMxNi41LDM4MC40ODQ0IEEyLjUsMi41IDAgMCAxIDMzMTksMzgyLjk4NDQgTDMzMTksNzIyIEEyLjUsMi41IDAgMCAxIDMzMTYuNSw3MjQuNSBMMjM0Mi41LDcyNC41IEEyLjUsMi41IDAgMCAxIDIzNDAsNzIyIEwyMzQwLDM2MiBBMi41LDIuNSAwIDAgMSAyMzQyLjUsMzU5LjUgIiBmaWxsPSJub25lIiBzdHlsZT0ic3Ryb2tlOiMwMDAwMDA7c3Ryb2tlLXdpZHRoOjEuNTsiLz48bGluZSBzdHlsZT0ic3Ryb2tlOiMwMDAwMDA7c3Ryb2tlLXdpZHRoOjEuNTsiIHgxPSIyMzQwIiB4Mj0iMjQwOSIgeTE9IjM4MC40ODQ0IiB5Mj0iMzgwLjQ4NDQiLz48dGV4dCBmaWxsPSIjMDAwMDAwIiBmb250LWZhbWlseT0ic2Fucy1zZXJpZiIgZm9udC1zaXplPSIxNCIgZm9udC13ZWlnaHQ9ImJvbGQiIGxlbmd0aEFkanVzdD0ic3BhY2luZyIgdGV4dExlbmd0aD0iNTYiIHg9IjIzNDQiIHk9IjM3NC43MzQ0Ij4mIzI3NDY4OyYjMjYzNTQ7JiMzMTY0OTsmIzI5NzAyOzwvdGV4dD48L2c+PCEtLWNsdXN0ZXIgPz8/Py0tPjxnIGlkPSJjbHVzdGVyXyYjMjk5OTI7JiMyNTE0MzsmIzMxNjQ5OyYjMjk3MDI7Ij48cGF0aCBkPSJNMzM2MS41LDM1OS41IEwzNDE4LjUsMzU5LjUgQTMuNzUsMy43NSAwIDAgMSAzNDIxLDM2MiBMMzQyOCwzODAuNDg0NCBMNDAxMy41LDM4MC40ODQ0IEEyLjUsMi41IDAgMCAxIDQwMTYsMzgyLjk4NDQgTDQwMTYsNzIyIEEyLjUsMi41IDAgMCAxIDQwMTMuNSw3MjQuNSBMMzM2MS41LDcyNC41IEEyLjUsMi41IDAgMCAxIDMzNTksNzIyIEwzMzU5LDM2MiBBMi41LDIuNSAwIDAgMSAzMzYxLjUsMzU5LjUgIiBmaWxsPSJub25lIiBzdHlsZT0ic3Ryb2tlOiMwMDAwMDA7c3Ryb2tlLXdpZHRoOjEuNTsiLz48bGluZSBzdHlsZT0ic3Ryb2tlOiMwMDAwMDA7c3Ryb2tlLXdpZHRoOjEuNTsiIHgxPSIzMzU5IiB4Mj0iMzQyOCIgeTE9IjM4MC40ODQ0IiB5Mj0iMzgwLjQ4NDQiLz48dGV4dCBmaWxsPSIjMDAwMDAwIiBmb250LWZhbWlseT0ic2Fucy1zZXJpZiIgZm9udC1zaXplPSIxNCIgZm9udC13ZWlnaHQ9ImJvbGQiIGxlbmd0aEFkanVzdD0ic3BhY2luZyIgdGV4dExlbmd0aD0iNTYiIHg9IjMzNjMiIHk9IjM3NC43MzQ0Ij4mIzI5OTkyOyYjMjUxNDM7JiMzMTY0OTsmIzI5NzAyOzwvdGV4dD48L2c+PCEtLWNsdXN0ZXIgPz8/Py0tPjxnIGlkPSJjbHVzdGVyXyYjMzU3ODA7JiMzNTc3MDsmIzMxNjQ5OyYjMjk3MDI7Ij48cGF0aCBkPSJNNDQuNSw2MTQuNSBMMTAxLjUsNjE0LjUgQTMuNzUsMy43NSAwIDAgMSAxMDQsNjE3IEwxMTEsNjM1LjQ4NDQgTDY0OS41LDYzNS40ODQ0IEEyLjUsMi41IDAgMCAxIDY1Miw2MzcuOTg0NCBMNjUyLDkzMiBBMi41LDIuNSAwIDAgMSA2NDkuNSw5MzQuNSBMNDQuNSw5MzQuNSBBMi41LDIuNSAwIDAgMSA0Miw5MzIgTDQyLDYxNyBBMi41LDIuNSAwIDAgMSA0NC41LDYxNC41ICIgZmlsbD0ibm9uZSIgc3R5bGU9InN0cm9rZTojMDAwMDAwO3N0cm9rZS13aWR0aDoxLjU7Ii8+PGxpbmUgc3R5bGU9InN0cm9rZTojMDAwMDAwO3N0cm9rZS13aWR0aDoxLjU7IiB4MT0iNDIiIHgyPSIxMTEiIHkxPSI2MzUuNDg0NCIgeTI9IjYzNS40ODQ0Ii8+PHRleHQgZmlsbD0iIzAwMDAwMCIgZm9udC1mYW1pbHk9InNhbnMtc2VyaWYiIGZvbnQtc2l6ZT0iMTQiIGZvbnQtd2VpZ2h0PSJib2xkIiBsZW5ndGhBZGp1c3Q9InNwYWNpbmciIHRleHRMZW5ndGg9IjU2IiB4PSI0NiIgeT0iNjI5LjczNDQiPiYjMzU3ODA7JiMzNTc3MDsmIzMxNjQ5OyYjMjk3MDI7PC90ZXh0PjwvZz48IS0tZW50aXR5ID8/Pz8tLT48ZyBpZD0iZWxlbV8mIzI4MTU1OyYjMjExNTI7JiMyNDAzNzsmIzIxMzMzOyI+PHJlY3QgZmlsbD0iI0YxRjFGMSIgaGVpZ2h0PSI0NC45ODQ0IiByeD0iMi41IiByeT0iMi41IiBzdHlsZT0ic3Ryb2tlOiMxODE4MTg7c3Ryb2tlLXdpZHRoOjAuNTsiIHdpZHRoPSI5NiIgeD0iMTEwIiB5PSIxNDUuNSIvPjxyZWN0IGZpbGw9IiNGMUYxRjEiIGhlaWdodD0iMTAiIHN0eWxlPSJzdHJva2U6IzE4MTgxODtzdHJva2Utd2lkdGg6MC41OyIgd2lkdGg9IjE1IiB4PSIxODYiIHk9IjE1MC41Ii8+PHJlY3QgZmlsbD0iI0YxRjFGMSIgaGVpZ2h0PSIyIiBzdHlsZT0ic3Ryb2tlOiMxODE4MTg7c3Ryb2tlLXdpZHRoOjAuNTsiIHdpZHRoPSI0IiB4PSIxODQiIHk9IjE1Mi41Ii8+PHJlY3QgZmlsbD0iI0YxRjFGMSIgaGVpZ2h0PSIyIiBzdHlsZT0ic3Ryb2tlOiMxODE4MTg7c3Ryb2tlLXdpZHRoOjAuNTsiIHdpZHRoPSI0IiB4PSIxODQiIHk9IjE1Ni41Ii8+PHRleHQgZmlsbD0iIzAwMDAwMCIgZm9udC1mYW1pbHk9InNhbnMtc2VyaWYiIGZvbnQtc2l6ZT0iMTQiIGxlbmd0aEFkanVzdD0ic3BhY2luZyIgdGV4dExlbmd0aD0iNTYiIHg9IjEyNSIgeT0iMTc4LjczNDQiPiYjMjgxNTU7JiMyMTE1MjsmIzI0MDM3OyYjMjEzMzM7PC90ZXh0PjwvZz48IS0tZW50aXR5ID8/Pz8tLT48ZyBpZD0iZWxlbV8mIzI2NTk3OyYjMzU4MTA7JiMyNDAzNzsmIzIxMzMzOyI+PHJlY3QgZmlsbD0iI0YxRjFGMSIgaGVpZ2h0PSI0NC45ODQ0IiByeD0iMi41IiByeT0iMi41IiBzdHlsZT0ic3Ryb2tlOiMxODE4MTg7c3Ryb2tlLXdpZHRoOjAuNTsiIHdpZHRoPSI5NiIgeD0iMjQxIiB5PSIxNDUuNSIvPjxyZWN0IGZpbGw9IiNGMUYxRjEiIGhlaWdodD0iMTAiIHN0eWxlPSJzdHJva2U6IzE4MTgxODtzdHJva2Utd2lkdGg6MC41OyIgd2lkdGg9IjE1IiB4PSIzMTciIHk9IjE1MC41Ii8+PHJlY3QgZmlsbD0iI0YxRjFGMSIgaGVpZ2h0PSIyIiBzdHlsZT0ic3Ryb2tlOiMxODE4MTg7c3Ryb2tlLXdpZHRoOjAuNTsiIHdpZHRoPSI0IiB4PSIzMTUiIHk9IjE1Mi41Ii8+PHJlY3QgZmlsbD0iI0YxRjFGMSIgaGVpZ2h0PSIyIiBzdHlsZT0ic3Ryb2tlOiMxODE4MTg7c3Ryb2tlLXdpZHRoOjAuNTsiIHdpZHRoPSI0IiB4PSIzMTUiIHk9IjE1Ni41Ii8+PHRleHQgZmlsbD0iIzAwMDAwMCIgZm9udC1mYW1pbHk9InNhbnMtc2VyaWYiIGZvbnQtc2l6ZT0iMTQiIGxlbmd0aEFkanVzdD0ic3BhY2luZyIgdGV4dExlbmd0aD0iNTYiIHg9IjI1NiIgeT0iMTc4LjczNDQiPiYjMjY1OTc7JiMzNTgxMDsmIzI0MDM3OyYjMjEzMzM7PC90ZXh0PjwvZz48IS0tZW50aXR5ID8/Pz8/Py0tPjxnIGlkPSJlbGVtXyYjMjY1OTc7JiMzNTgxMDsmIzI1MTUyOyYjMjYzNzc7JiMyNDAzNzsmIzIxMzMzOyI+PHJlY3QgZmlsbD0iI0YxRjFGMSIgaGVpZ2h0PSI0NC45ODQ0IiByeD0iMi41IiByeT0iMi41IiBzdHlsZT0ic3Ryb2tlOiMxODE4MTg7c3Ryb2tlLXdpZHRoOjAuNTsiIHdpZHRoPSIxMjQiIHg9IjM3MiIgeT0iMTQ1LjUiLz48cmVjdCBmaWxsPSIjRjFGMUYxIiBoZWlnaHQ9IjEwIiBzdHlsZT0ic3Ryb2tlOiMxODE4MTg7c3Ryb2tlLXdpZHRoOjAuNTsiIHdpZHRoPSIxNSIgeD0iNDc2IiB5PSIxNTAuNSIvPjxyZWN0IGZpbGw9IiNGMUYxRjEiIGhlaWdodD0iMiIgc3R5bGU9InN0cm9rZTojMTgxODE4O3N0cm9rZS13aWR0aDowLjU7IiB3aWR0aD0iNCIgeD0iNDc0IiB5PSIxNTIuNSIvPjxyZWN0IGZpbGw9IiNGMUYxRjEiIGhlaWdodD0iMiIgc3R5bGU9InN0cm9rZTojMTgxODE4O3N0cm9rZS13aWR0aDowLjU7IiB3aWR0aD0iNCIgeD0iNDc0IiB5PSIxNTYuNSIvPjx0ZXh0IGZpbGw9IiMwMDAwMDAiIGZvbnQtZmFtaWx5PSJzYW5zLXNlcmlmIiBmb250LXNpemU9IjE0IiBsZW5ndGhBZGp1c3Q9InNwYWNpbmciIHRleHRMZW5ndGg9Ijg0IiB4PSIzODciIHk9IjE3OC43MzQ0Ij4mIzI2NTk3OyYjMzU4MTA7JiMyNTE1MjsmIzI2Mzc3OyYjMjQwMzc7JiMyMTMzMzs8L3RleHQ+PC9nPjwhLS1lbnRpdHkgPz8/Py0tPjxnIGlkPSJlbGVtXyYjMjEwMjQ7JiMzODUwMDsmIzI0MDM3OyYjMjEzMzM7Ij48cmVjdCBmaWxsPSIjRjFGMUYxIiBoZWlnaHQ9IjQ0Ljk4NDQiIHJ4PSIyLjUiIHJ5PSIyLjUiIHN0eWxlPSJzdHJva2U6IzE4MTgxODtzdHJva2Utd2lkdGg6MC41OyIgd2lkdGg9Ijk2IiB4PSIxMTAiIHk9IjI1MC41Ii8+PHJlY3QgZmlsbD0iI0YxRjFGMSIgaGVpZ2h0PSIxMCIgc3R5bGU9InN0cm9rZTojMTgxODE4O3N0cm9rZS13aWR0aDowLjU7IiB3aWR0aD0iMTUiIHg9IjE4NiIgeT0iMjU1LjUiLz48cmVjdCBmaWxsPSIjRjFGMUYxIiBoZWlnaHQ9IjIiIHN0eWxlPSJzdHJva2U6IzE4MTgxODtzdHJva2Utd2lkdGg6MC41OyIgd2lkdGg9IjQiIHg9IjE4NCIgeT0iMjU3LjUiLz48cmVjdCBmaWxsPSIjRjFGMUYxIiBoZWlnaHQ9IjIiIHN0eWxlPSJzdHJva2U6IzE4MTgxODtzdHJva2Utd2lkdGg6MC41OyIgd2lkdGg9IjQiIHg9IjE4NCIgeT0iMjYxLjUiLz48dGV4dCBmaWxsPSIjMDAwMDAwIiBmb250LWZhbWlseT0ic2Fucy1zZXJpZiIgZm9udC1zaXplPSIxNCIgbGVuZ3RoQWRqdXN0PSJzcGFjaW5nIiB0ZXh0TGVuZ3RoPSI1NiIgeD0iMTI1IiB5PSIyODMuNzM0NCI+JiMyMTAyNDsmIzM4NTAwOyYjMjQwMzc7JiMyMTMzMzs8L3RleHQ+PC9nPjwhLS1lbnRpdHkgPz8/Pz8/LS0+PGcgaWQ9ImVsZW1fJiMyNTIwOTsmIzM3MzI3OyYjMjEwMjQ7JiMzODUwMDsmIzI0MDM3OyYjMjEzMzM7Ij48cmVjdCBmaWxsPSIjRjFGMUYxIiBoZWlnaHQ9IjQ0Ljk4NDQiIHJ4PSIyLjUiIHJ5PSIyLjUiIHN0eWxlPSJzdHJva2U6IzE4MTgxODtzdHJva2Utd2lkdGg6MC41OyIgd2lkdGg9IjEyNCIgeD0iMjQxIiB5PSIyNTAuNSIvPjxyZWN0IGZpbGw9IiNGMUYxRjEiIGhlaWdodD0iMTAiIHN0eWxlPSJzdHJva2U6IzE4MTgxODtzdHJva2Utd2lkdGg6MC41OyIgd2lkdGg9IjE1IiB4PSIzNDUiIHk9IjI1NS41Ii8+PHJlY3QgZmlsbD0iI0YxRjFGMSIgaGVpZ2h0PSIyIiBzdHlsZT0ic3Ryb2tlOiMxODE4MTg7c3Ryb2tlLXdpZHRoOjAuNTsiIHdpZHRoPSI0IiB4PSIzNDMiIHk9IjI1Ny41Ii8+PHJlY3QgZmlsbD0iI0YxRjFGMSIgaGVpZ2h0PSIyIiBzdHlsZT0ic3Ryb2tlOiMxODE4MTg7c3Ryb2tlLXdpZHRoOjAuNTsiIHdpZHRoPSI0IiB4PSIzNDMiIHk9IjI2MS41Ii8+PHRleHQgZmlsbD0iIzAwMDAwMCIgZm9udC1mYW1pbHk9InNhbnMtc2VyaWYiIGZvbnQtc2l6ZT0iMTQiIGxlbmd0aEFkanVzdD0ic3BhY2luZyIgdGV4dExlbmd0aD0iODQiIHg9IjI1NiIgeT0iMjgzLjczNDQiPiYjMjUyMDk7JiMzNzMyNzsmIzIxMDI0OyYjMzg1MDA7JiMyNDAzNzsmIzIxMzMzOzwvdGV4dD48L2c+PCEtLWVudGl0eSA/Pz8/LS0+PGcgaWQ9ImVsZW1fJiMyNjM1NjsmIzI2MDMyOyYjMjQwMzc7JiMyMTMzMzsiPjxyZWN0IGZpbGw9IiNGMUYxRjEiIGhlaWdodD0iNDQuOTg0NCIgcng9IjIuNSIgcnk9IjIuNSIgc3R5bGU9InN0cm9rZTojMTgxODE4O3N0cm9rZS13aWR0aDowLjU7IiB3aWR0aD0iOTYiIHg9IjQwMCIgeT0iMjUwLjUiLz48cmVjdCBmaWxsPSIjRjFGMUYxIiBoZWlnaHQ9IjEwIiBzdHlsZT0ic3Ryb2tlOiMxODE4MTg7c3Ryb2tlLXdpZHRoOjAuNTsiIHdpZHRoPSIxNSIgeD0iNDc2IiB5PSIyNTUuNSIvPjxyZWN0IGZpbGw9IiNGMUYxRjEiIGhlaWdodD0iMiIgc3R5bGU9InN0cm9rZTojMTgxODE4O3N0cm9rZS13aWR0aDowLjU7IiB3aWR0aD0iNCIgeD0iNDc0IiB5PSIyNTcuNSIvPjxyZWN0IGZpbGw9IiNGMUYxRjEiIGhlaWdodD0iMiIgc3R5bGU9InN0cm9rZTojMTgxODE4O3N0cm9rZS13aWR0aDowLjU7IiB3aWR0aD0iNCIgeD0iNDc0IiB5PSIyNjEuNSIvPjx0ZXh0IGZpbGw9IiMwMDAwMDAiIGZvbnQtZmFtaWx5PSJzYW5zLXNlcmlmIiBmb250LXNpemU9IjE0IiBsZW5ndGhBZGp1c3Q9InNwYWNpbmciIHRleHRMZW5ndGg9IjU2IiB4PSI0MTUiIHk9IjI4My43MzQ0Ij4mIzI2MzU2OyYjMjYwMzI7JiMyNDAzNzsmIzIxMzMzOzwvdGV4dD48L2c+PCEtLWVudGl0eSA/Pz8/LS0+PGcgaWQ9ImVsZW1fJiMyODE1NTsmIzIxMTUyOyYjMjc0Njg7JiMyMTMzMzsiPjxyZWN0IGZpbGw9IiNGMUYxRjEiIGhlaWdodD0iNDQuOTg0NCIgcng9IjIuNSIgcnk9IjIuNSIgc3R5bGU9InN0cm9rZTojMTgxODE4O3N0cm9rZS13aWR0aDowLjU7IiB3aWR0aD0iOTYiIHg9IjcyMyIgeT0iMTQ1LjUiLz48cmVjdCBmaWxsPSIjRjFGMUYxIiBoZWlnaHQ9IjEwIiBzdHlsZT0ic3Ryb2tlOiMxODE4MTg7c3Ryb2tlLXdpZHRoOjAuNTsiIHdpZHRoPSIxNSIgeD0iNzk5IiB5PSIxNTAuNSIvPjxyZWN0IGZpbGw9IiNGMUYxRjEiIGhlaWdodD0iMiIgc3R5bGU9InN0cm9rZTojMTgxODE4O3N0cm9rZS13aWR0aDowLjU7IiB3aWR0aD0iNCIgeD0iNzk3IiB5PSIxNTIuNSIvPjxyZWN0IGZpbGw9IiNGMUYxRjEiIGhlaWdodD0iMiIgc3R5bGU9InN0cm9rZTojMTgxODE4O3N0cm9rZS13aWR0aDowLjU7IiB3aWR0aD0iNCIgeD0iNzk3IiB5PSIxNTYuNSIvPjx0ZXh0IGZpbGw9IiMwMDAwMDAiIGZvbnQtZmFtaWx5PSJzYW5zLXNlcmlmIiBmb250LXNpemU9IjE0IiBsZW5ndGhBZGp1c3Q9InNwYWNpbmciIHRleHRMZW5ndGg9IjU2IiB4PSI3MzgiIHk9IjE3OC43MzQ0Ij4mIzI4MTU1OyYjMjExNTI7JiMyNzQ2ODsmIzIxMzMzOzwvdGV4dD48L2c+PCEtLWVudGl0eSA/Pz8/Pz8tLT48ZyBpZD0iZWxlbV8mIzI2NTk3OyYjMzU4MTA7JiMyNTE1MjsmIzI2Mzc3OyYjMjc0Njg7JiMyMTMzMzsiPjxyZWN0IGZpbGw9IiNGMUYxRjEiIGhlaWdodD0iNDQuOTg0NCIgcng9IjIuNSIgcnk9IjIuNSIgc3R5bGU9InN0cm9rZTojMTgxODE4O3N0cm9rZS13aWR0aDowLjU7IiB3aWR0aD0iMTI0IiB4PSI4ODEiIHk9IjE0NS41Ii8+PHJlY3QgZmlsbD0iI0YxRjFGMSIgaGVpZ2h0PSIxMCIgc3R5bGU9InN0cm9rZTojMTgxODE4O3N0cm9rZS13aWR0aDowLjU7IiB3aWR0aD0iMTUiIHg9Ijk4NSIgeT0iMTUwLjUiLz48cmVjdCBmaWxsPSIjRjFGMUYxIiBoZWlnaHQ9IjIiIHN0eWxlPSJzdHJva2U6IzE4MTgxODtzdHJva2Utd2lkdGg6MC41OyIgd2lkdGg9IjQiIHg9Ijk4MyIgeT0iMTUyLjUiLz48cmVjdCBmaWxsPSIjRjFGMUYxIiBoZWlnaHQ9IjIiIHN0eWxlPSJzdHJva2U6IzE4MTgxODtzdHJva2Utd2lkdGg6MC41OyIgd2lkdGg9IjQiIHg9Ijk4MyIgeT0iMTU2LjUiLz48dGV4dCBmaWxsPSIjMDAwMDAwIiBmb250LWZhbWlseT0ic2Fucy1zZXJpZiIgZm9udC1zaXplPSIxNCIgbGVuZ3RoQWRqdXN0PSJzcGFjaW5nIiB0ZXh0TGVuZ3RoPSI4NCIgeD0iODk2IiB5PSIxNzguNzM0NCI+JiMyNjU5NzsmIzM1ODEwOyYjMjUxNTI7JiMyNjM3NzsmIzI3NDY4OyYjMjEzMzM7PC90ZXh0PjwvZz48IS0tZW50aXR5ID8/Pz8/Py0tPjxnIGlkPSJlbGVtXyYjMzM3MTk7JiMyMTQ2MjsmIzI3NDY4OyYjMjEzMzM7JiMyNTk2ODsmIzM3MzI3OyI+PHJlY3QgZmlsbD0iI0YxRjFGMSIgaGVpZ2h0PSI0NC45ODQ0IiByeD0iMi41IiByeT0iMi41IiBzdHlsZT0ic3Ryb2tlOiMxODE4MTg7c3Ryb2tlLXdpZHRoOjAuNTsiIHdpZHRoPSIxMjQiIHg9IjEwOTMiIHk9IjE0NS41Ii8+PHJlY3QgZmlsbD0iI0YxRjFGMSIgaGVpZ2h0PSIxMCIgc3R5bGU9InN0cm9rZTojMTgxODE4O3N0cm9rZS13aWR0aDowLjU7IiB3aWR0aD0iMTUiIHg9IjExOTciIHk9IjE1MC41Ii8+PHJlY3QgZmlsbD0iI0YxRjFGMSIgaGVpZ2h0PSIyIiBzdHlsZT0ic3Ryb2tlOiMxODE4MTg7c3Ryb2tlLXdpZHRoOjAuNTsiIHdpZHRoPSI0IiB4PSIxMTk1IiB5PSIxNTIuNSIvPjxyZWN0IGZpbGw9IiNGMUYxRjEiIGhlaWdodD0iMiIgc3R5bGU9InN0cm9rZTojMTgxODE4O3N0cm9rZS13aWR0aDowLjU7IiB3aWR0aD0iNCIgeD0iMTE5NSIgeT0iMTU2LjUiLz48dGV4dCBmaWxsPSIjMDAwMDAwIiBmb250LWZhbWlseT0ic2Fucy1zZXJpZiIgZm9udC1zaXplPSIxNCIgbGVuZ3RoQWRqdXN0PSJzcGFjaW5nIiB0ZXh0TGVuZ3RoPSI4NCIgeD0iMTEwOCIgeT0iMTc4LjczNDQiPiYjMzM3MTk7JiMyMTQ2MjsmIzI3NDY4OyYjMjEzMzM7JiMyNTk2ODsmIzM3MzI3OzwvdGV4dD48L2c+PCEtLWVudGl0eSA/Pz8/LS0+PGcgaWQ9ImVsZW1fJiMyMTAyNDsmIzM4NTAwOyYjMjc0Njg7JiMyMTMzMzsiPjxyZWN0IGZpbGw9IiNGMUYxRjEiIGhlaWdodD0iNDQuOTg0NCIgcng9IjIuNSIgcnk9IjIuNSIgc3R5bGU9InN0cm9rZTojMTgxODE4O3N0cm9rZS13aWR0aDowLjU7IiB3aWR0aD0iOTYiIHg9IjEyNzkiIHk9IjE0NS41Ii8+PHJlY3QgZmlsbD0iI0YxRjFGMSIgaGVpZ2h0PSIxMCIgc3R5bGU9InN0cm9rZTojMTgxODE4O3N0cm9rZS13aWR0aDowLjU7IiB3aWR0aD0iMTUiIHg9IjEzNTUiIHk9IjE1MC41Ii8+PHJlY3QgZmlsbD0iI0YxRjFGMSIgaGVpZ2h0PSIyIiBzdHlsZT0ic3Ryb2tlOiMxODE4MTg7c3Ryb2tlLXdpZHRoOjAuNTsiIHdpZHRoPSI0IiB4PSIxMzUzIiB5PSIxNTIuNSIvPjxyZWN0IGZpbGw9IiNGMUYxRjEiIGhlaWdodD0iMiIgc3R5bGU9InN0cm9rZTojMTgxODE4O3N0cm9rZS13aWR0aDowLjU7IiB3aWR0aD0iNCIgeD0iMTM1MyIgeT0iMTU2LjUiLz48dGV4dCBmaWxsPSIjMDAwMDAwIiBmb250LWZhbWlseT0ic2Fucy1zZXJpZiIgZm9udC1zaXplPSIxNCIgbGVuZ3RoQWRqdXN0PSJzcGFjaW5nIiB0ZXh0TGVuZ3RoPSI1NiIgeD0iMTI5NCIgeT0iMTc4LjczNDQiPiYjMjEwMjQ7JiMzODUwMDsmIzI3NDY4OyYjMjEzMzM7PC90ZXh0PjwvZz48IS0tZW50aXR5ID8/Pz8/Py0tPjxnIGlkPSJlbGVtXyYjMjUyMDk7JiMzNzMyNzsmIzIxMDI0OyYjMzg1MDA7JiMyNzQ2ODsmIzIxMzMzOyI+PHJlY3QgZmlsbD0iI0YxRjFGMSIgaGVpZ2h0PSI0NC45ODQ0IiByeD0iMi41IiByeT0iMi41IiBzdHlsZT0ic3Ryb2tlOiMxODE4MTg7c3Ryb2tlLXdpZHRoOjAuNTsiIHdpZHRoPSIxMjQiIHg9IjcxMCIgeT0iMjUwLjUiLz48cmVjdCBmaWxsPSIjRjFGMUYxIiBoZWlnaHQ9IjEwIiBzdHlsZT0ic3Ryb2tlOiMxODE4MTg7c3Ryb2tlLXdpZHRoOjAuNTsiIHdpZHRoPSIxNSIgeD0iODE0IiB5PSIyNTUuNSIvPjxyZWN0IGZpbGw9IiNGMUYxRjEiIGhlaWdodD0iMiIgc3R5bGU9InN0cm9rZTojMTgxODE4O3N0cm9rZS13aWR0aDowLjU7IiB3aWR0aD0iNCIgeD0iODEyIiB5PSIyNTcuNSIvPjxyZWN0IGZpbGw9IiNGMUYxRjEiIGhlaWdodD0iMiIgc3R5bGU9InN0cm9rZTojMTgxODE4O3N0cm9rZS13aWR0aDowLjU7IiB3aWR0aD0iNCIgeD0iODEyIiB5PSIyNjEuNSIvPjx0ZXh0IGZpbGw9IiMwMDAwMDAiIGZvbnQtZmFtaWx5PSJzYW5zLXNlcmlmIiBmb250LXNpemU9IjE0IiBsZW5ndGhBZGp1c3Q9InNwYWNpbmciIHRleHRMZW5ndGg9Ijg0IiB4PSI3MjUiIHk9IjI4My43MzQ0Ij4mIzI1MjA5OyYjMzczMjc7JiMyMTAyNDsmIzM4NTAwOyYjMjc0Njg7JiMyMTMzMzs8L3RleHQ+PC9nPjwhLS1lbnRpdHkgPz8/Pz8/Pz8/Pz8tLT48ZyBpZD0iZWxlbV8mIzI2NTk3OyYjMzU4MTA7JiMyNTM1MTsmIzIzNDUwOyYjMjk5OTI7JiMyNTE0MzsmIzMwMzQwOyYjMjUxNTI7JiMyNjM3NzsmIzI3NDY4OyYjMjEzMzM7Ij48cmVjdCBmaWxsPSIjRjFGMUYxIiBoZWlnaHQ9IjQ0Ljk4NDQiIHJ4PSIyLjUiIHJ5PSIyLjUiIHN0eWxlPSJzdHJva2U6IzE4MTgxODtzdHJva2Utd2lkdGg6MC41OyIgd2lkdGg9IjE5NCIgeD0iODY5IiB5PSIyNTAuNSIvPjxyZWN0IGZpbGw9IiNGMUYxRjEiIGhlaWdodD0iMTAiIHN0eWxlPSJzdHJva2U6IzE4MTgxODtzdHJva2Utd2lkdGg6MC41OyIgd2lkdGg9IjE1IiB4PSIxMDQzIiB5PSIyNTUuNSIvPjxyZWN0IGZpbGw9IiNGMUYxRjEiIGhlaWdodD0iMiIgc3R5bGU9InN0cm9rZTojMTgxODE4O3N0cm9rZS13aWR0aDowLjU7IiB3aWR0aD0iNCIgeD0iMTA0MSIgeT0iMjU3LjUiLz48cmVjdCBmaWxsPSIjRjFGMUYxIiBoZWlnaHQ9IjIiIHN0eWxlPSJzdHJva2U6IzE4MTgxODtzdHJva2Utd2lkdGg6MC41OyIgd2lkdGg9IjQiIHg9IjEwNDEiIHk9IjI2MS41Ii8+PHRleHQgZmlsbD0iIzAwMDAwMCIgZm9udC1mYW1pbHk9InNhbnMtc2VyaWYiIGZvbnQtc2l6ZT0iMTQiIGxlbmd0aEFkanVzdD0ic3BhY2luZyIgdGV4dExlbmd0aD0iMTU0IiB4PSI4ODQiIHk9IjI4My43MzQ0Ij4mIzI2NTk3OyYjMzU4MTA7JiMyNTM1MTsmIzIzNDUwOyYjMjk5OTI7JiMyNTE0MzsmIzMwMzQwOyYjMjUxNTI7JiMyNjM3NzsmIzI3NDY4OyYjMjEzMzM7PC90ZXh0PjwvZz48IS0tZW50aXR5ID8/Pz9uPz8/LS0+PGcgaWQ9ImVsZW1fJiMzODU0MzsmIzI2NDI2OyYjMzM3MTk7JiMyNDQ3MTtuJiMyMDAxMDsmIzI3NDY4OyYjMjEzMzM7Ij48cmVjdCBmaWxsPSIjRjFGMUYxIiBoZWlnaHQ9IjQ0Ljk4NDQiIHJ4PSIyLjUiIHJ5PSIyLjUiIHN0eWxlPSJzdHJva2U6IzE4MTgxODtzdHJva2Utd2lkdGg6MC41OyIgd2lkdGg9IjE0NSIgeD0iMTA5OC41IiB5PSIyNTAuNSIvPjxyZWN0IGZpbGw9IiNGMUYxRjEiIGhlaWdodD0iMTAiIHN0eWxlPSJzdHJva2U6IzE4MTgxODtzdHJva2Utd2lkdGg6MC41OyIgd2lkdGg9IjE1IiB4PSIxMjIzLjUiIHk9IjI1NS41Ii8+PHJlY3QgZmlsbD0iI0YxRjFGMSIgaGVpZ2h0PSIyIiBzdHlsZT0ic3Ryb2tlOiMxODE4MTg7c3Ryb2tlLXdpZHRoOjAuNTsiIHdpZHRoPSI0IiB4PSIxMjIxLjUiIHk9IjI1Ny41Ii8+PHJlY3QgZmlsbD0iI0YxRjFGMSIgaGVpZ2h0PSIyIiBzdHlsZT0ic3Ryb2tlOiMxODE4MTg7c3Ryb2tlLXdpZHRoOjAuNTsiIHdpZHRoPSI0IiB4PSIxMjIxLjUiIHk9IjI2MS41Ii8+PHRleHQgZmlsbD0iIzAwMDAwMCIgZm9udC1mYW1pbHk9InNhbnMtc2VyaWYiIGZvbnQtc2l6ZT0iMTQiIGxlbmd0aEFkanVzdD0ic3BhY2luZyIgdGV4dExlbmd0aD0iMTA1IiB4PSIxMTEzLjUiIHk9IjI4My43MzQ0Ij4mIzM4NTQzOyYjMjY0MjY7JiMzMzcxOTsmIzI0NDcxO24mIzIwMDEwOyYjMjc0Njg7JiMyMTMzMzs8L3RleHQ+PC9nPjwhLS1lbnRpdHkgPz8/Py0tPjxnIGlkPSJlbGVtXyYjMjYzNTY7JiMyNjAzMjsmIzI3NDY4OyYjMjEzMzM7Ij48cmVjdCBmaWxsPSIjRjFGMUYxIiBoZWlnaHQ9IjQ0Ljk4NDQiIHJ4PSIyLjUiIHJ5PSIyLjUiIHN0eWxlPSJzdHJva2U6IzE4MTgxODtzdHJva2Utd2lkdGg6MC41OyIgd2lkdGg9Ijk2IiB4PSIxMjc5IiB5PSIyNTAuNSIvPjxyZWN0IGZpbGw9IiNGMUYxRjEiIGhlaWdodD0iMTAiIHN0eWxlPSJzdHJva2U6IzE4MTgxODtzdHJva2Utd2lkdGg6MC41OyIgd2lkdGg9IjE1IiB4PSIxMzU1IiB5PSIyNTUuNSIvPjxyZWN0IGZpbGw9IiNGMUYxRjEiIGhlaWdodD0iMiIgc3R5bGU9InN0cm9rZTojMTgxODE4O3N0cm9rZS13aWR0aDowLjU7IiB3aWR0aD0iNCIgeD0iMTM1MyIgeT0iMjU3LjUiLz48cmVjdCBmaWxsPSIjRjFGMUYxIiBoZWlnaHQ9IjIiIHN0eWxlPSJzdHJva2U6IzE4MTgxODtzdHJva2Utd2lkdGg6MC41OyIgd2lkdGg9IjQiIHg9IjEzNTMiIHk9IjI2MS41Ii8+PHRleHQgZmlsbD0iIzAwMDAwMCIgZm9udC1mYW1pbHk9InNhbnMtc2VyaWYiIGZvbnQtc2l6ZT0iMTQiIGxlbmd0aEFkanVzdD0ic3BhY2luZyIgdGV4dExlbmd0aD0iNTYiIHg9IjEyOTQiIHk9IjI4My43MzQ0Ij4mIzI2MzU2OyYjMjYwMzI7JiMyNzQ2ODsmIzIxMzMzOzwvdGV4dD48L2c+PCEtLWVudGl0eSA/Pz8/Pz8/Pz8/LS0+PGcgaWQ9ImVsZW1fJiMyNjY4MTsmIzI1NDU0OyYjMjc0Njg7JiMyMTMzMzsmIzM5MTE4OyYjMjY2ODQ7JiMyNzE2OTsmIzMxOTQ2OyYjMjY1OTc7JiMzNTgxMDsiPjxyZWN0IGZpbGw9IiNGMUYxRjEiIGhlaWdodD0iNDQuOTg0NCIgcng9IjIuNSIgcnk9IjIuNSIgc3R5bGU9InN0cm9rZTojMTgxODE4O3N0cm9rZS13aWR0aDowLjU7IiB3aWR0aD0iMTgwIiB4PSI3MTAiIHk9IjQwMC41Ii8+PHJlY3QgZmlsbD0iI0YxRjFGMSIgaGVpZ2h0PSIxMCIgc3R5bGU9InN0cm9rZTojMTgxODE4O3N0cm9rZS13aWR0aDowLjU7IiB3aWR0aD0iMTUiIHg9Ijg3MCIgeT0iNDA1LjUiLz48cmVjdCBmaWxsPSIjRjFGMUYxIiBoZWlnaHQ9IjIiIHN0eWxlPSJzdHJva2U6IzE4MTgxODtzdHJva2Utd2lkdGg6MC41OyIgd2lkdGg9IjQiIHg9Ijg2OCIgeT0iNDA3LjUiLz48cmVjdCBmaWxsPSIjRjFGMUYxIiBoZWlnaHQ9IjIiIHN0eWxlPSJzdHJva2U6IzE4MTgxODtzdHJva2Utd2lkdGg6MC41OyIgd2lkdGg9IjQiIHg9Ijg2OCIgeT0iNDExLjUiLz48dGV4dCBmaWxsPSIjMDAwMDAwIiBmb250LWZhbWlseT0ic2Fucy1zZXJpZiIgZm9udC1zaXplPSIxNCIgbGVuZ3RoQWRqdXN0PSJzcGFjaW5nIiB0ZXh0TGVuZ3RoPSIxNDAiIHg9IjcyNSIgeT0iNDMzLjczNDQiPiYjMjY2ODE7JiMyNTQ1NDsmIzI3NDY4OyYjMjEzMzM7JiMzOTExODsmIzI2Njg0OyYjMjcxNjk7JiMzMTk0NjsmIzI2NTk3OyYjMzU4MTA7PC90ZXh0PjwvZz48IS0tZW50aXR5ID8/Pz8/Pz8/Pz8tLT48ZyBpZD0iZWxlbV8mIzI2NjgxOyYjMjU0NTQ7JiMyNzQ2ODsmIzIxMzMzOyYjMjE1MTc7JiMzMTIxNjsmIzI3MTY5OyYjMzE5NDY7JiMyNjU5NzsmIzM1ODEwOyI+PHJlY3QgZmlsbD0iI0YxRjFGMSIgaGVpZ2h0PSI0NC45ODQ0IiByeD0iMi41IiByeT0iMi41IiBzdHlsZT0ic3Ryb2tlOiMxODE4MTg7c3Ryb2tlLXdpZHRoOjAuNTsiIHdpZHRoPSIxODAiIHg9IjkyNSIgeT0iNDAwLjUiLz48cmVjdCBmaWxsPSIjRjFGMUYxIiBoZWlnaHQ9IjEwIiBzdHlsZT0ic3Ryb2tlOiMxODE4MTg7c3Ryb2tlLXdpZHRoOjAuNTsiIHdpZHRoPSIxNSIgeD0iMTA4NSIgeT0iNDA1LjUiLz48cmVjdCBmaWxsPSIjRjFGMUYxIiBoZWlnaHQ9IjIiIHN0eWxlPSJzdHJva2U6IzE4MTgxODtzdHJva2Utd2lkdGg6MC41OyIgd2lkdGg9IjQiIHg9IjEwODMiIHk9IjQwNy41Ii8+PHJlY3QgZmlsbD0iI0YxRjFGMSIgaGVpZ2h0PSIyIiBzdHlsZT0ic3Ryb2tlOiMxODE4MTg7c3Ryb2tlLXdpZHRoOjAuNTsiIHdpZHRoPSI0IiB4PSIxMDgzIiB5PSI0MTEuNSIvPjx0ZXh0IGZpbGw9IiMwMDAwMDAiIGZvbnQtZmFtaWx5PSJzYW5zLXNlcmlmIiBmb250LXNpemU9IjE0IiBsZW5ndGhBZGp1c3Q9InNwYWNpbmciIHRleHRMZW5ndGg9IjE0MCIgeD0iOTQwIiB5PSI0MzMuNzM0NCI+JiMyNjY4MTsmIzI1NDU0OyYjMjc0Njg7JiMyMTMzMzsmIzIxNTE3OyYjMzEyMTY7JiMyNzE2OTsmIzMxOTQ2OyYjMjY1OTc7JiMzNTgxMDs8L3RleHQ+PC9nPjwhLS1lbnRpdHkgPz8/Py0tPjxnIGlkPSJlbGVtXyYjMjY1OTc7JiMzNTgxMDsmIzI3NDY4OyYjMjUxNjM7Ij48cmVjdCBmaWxsPSIjRjFGMUYxIiBoZWlnaHQ9IjQ0Ljk4NDQiIHJ4PSIyLjUiIHJ5PSIyLjUiIHN0eWxlPSJzdHJva2U6IzE4MTgxODtzdHJva2Utd2lkdGg6MC41OyIgd2lkdGg9Ijk2IiB4PSIxNDgyIiB5PSIxNDUuNSIvPjxyZWN0IGZpbGw9IiNGMUYxRjEiIGhlaWdodD0iMTAiIHN0eWxlPSJzdHJva2U6IzE4MTgxODtzdHJva2Utd2lkdGg6MC41OyIgd2lkdGg9IjE1IiB4PSIxNTU4IiB5PSIxNTAuNSIvPjxyZWN0IGZpbGw9IiNGMUYxRjEiIGhlaWdodD0iMiIgc3R5bGU9InN0cm9rZTojMTgxODE4O3N0cm9rZS13aWR0aDowLjU7IiB3aWR0aD0iNCIgeD0iMTU1NiIgeT0iMTUyLjUiLz48cmVjdCBmaWxsPSIjRjFGMUYxIiBoZWlnaHQ9IjIiIHN0eWxlPSJzdHJva2U6IzE4MTgxODtzdHJva2Utd2lkdGg6MC41OyIgd2lkdGg9IjQiIHg9IjE1NTYiIHk9IjE1Ni41Ii8+PHRleHQgZmlsbD0iIzAwMDAwMCIgZm9udC1mYW1pbHk9InNhbnMtc2VyaWYiIGZvbnQtc2l6ZT0iMTQiIGxlbmd0aEFkanVzdD0ic3BhY2luZyIgdGV4dExlbmd0aD0iNTYiIHg9IjE0OTciIHk9IjE3OC43MzQ0Ij4mIzI2NTk3OyYjMzU4MTA7JiMyNzQ2ODsmIzI1MTYzOzwvdGV4dD48L2c+PCEtLWVudGl0eSA/Pz8/LS0+PGcgaWQ9ImVsZW1fJiMyODE1NTsmIzIxMTUyOyYjMjc0Njg7JiMyNTE2MzsiPjxyZWN0IGZpbGw9IiNGMUYxRjEiIGhlaWdodD0iNDQuOTg0NCIgcng9IjIuNSIgcnk9IjIuNSIgc3R5bGU9InN0cm9rZTojMTgxODE4O3N0cm9rZS13aWR0aDowLjU7IiB3aWR0aD0iOTYiIHg9IjE2MTMiIHk9IjE0NS41Ii8+PHJlY3QgZmlsbD0iI0YxRjFGMSIgaGVpZ2h0PSIxMCIgc3R5bGU9InN0cm9rZTojMTgxODE4O3N0cm9rZS13aWR0aDowLjU7IiB3aWR0aD0iMTUiIHg9IjE2ODkiIHk9IjE1MC41Ii8+PHJlY3QgZmlsbD0iI0YxRjFGMSIgaGVpZ2h0PSIyIiBzdHlsZT0ic3Ryb2tlOiMxODE4MTg7c3Ryb2tlLXdpZHRoOjAuNTsiIHdpZHRoPSI0IiB4PSIxNjg3IiB5PSIxNTIuNSIvPjxyZWN0IGZpbGw9IiNGMUYxRjEiIGhlaWdodD0iMiIgc3R5bGU9InN0cm9rZTojMTgxODE4O3N0cm9rZS13aWR0aDowLjU7IiB3aWR0aD0iNCIgeD0iMTY4NyIgeT0iMTU2LjUiLz48dGV4dCBmaWxsPSIjMDAwMDAwIiBmb250LWZhbWlseT0ic2Fucy1zZXJpZiIgZm9udC1zaXplPSIxNCIgbGVuZ3RoQWRqdXN0PSJzcGFjaW5nIiB0ZXh0TGVuZ3RoPSI1NiIgeD0iMTYyOCIgeT0iMTc4LjczNDQiPiYjMjgxNTU7JiMyMTE1MjsmIzI3NDY4OyYjMjUxNjM7PC90ZXh0PjwvZz48IS0tZW50aXR5ID8/Pz8/Py0tPjxnIGlkPSJlbGVtXyYjMjY1OTc7JiMzNTgxMDsmIzI1MTUyOyYjMjYzNzc7JiMyNzQ2ODsmIzI1MTYzOyI+PHJlY3QgZmlsbD0iI0YxRjFGMSIgaGVpZ2h0PSI0NC45ODQ0IiByeD0iMi41IiByeT0iMi41IiBzdHlsZT0ic3Ryb2tlOiMxODE4MTg7c3Ryb2tlLXdpZHRoOjAuNTsiIHdpZHRoPSIxMjQiIHg9IjE3NDQiIHk9IjE0NS41Ii8+PHJlY3QgZmlsbD0iI0YxRjFGMSIgaGVpZ2h0PSIxMCIgc3R5bGU9InN0cm9rZTojMTgxODE4O3N0cm9rZS13aWR0aDowLjU7IiB3aWR0aD0iMTUiIHg9IjE4NDgiIHk9IjE1MC41Ii8+PHJlY3QgZmlsbD0iI0YxRjFGMSIgaGVpZ2h0PSIyIiBzdHlsZT0ic3Ryb2tlOiMxODE4MTg7c3Ryb2tlLXdpZHRoOjAuNTsiIHdpZHRoPSI0IiB4PSIxODQ2IiB5PSIxNTIuNSIvPjxyZWN0IGZpbGw9IiNGMUYxRjEiIGhlaWdodD0iMiIgc3R5bGU9InN0cm9rZTojMTgxODE4O3N0cm9rZS13aWR0aDowLjU7IiB3aWR0aD0iNCIgeD0iMTg0NiIgeT0iMTU2LjUiLz48dGV4dCBmaWxsPSIjMDAwMDAwIiBmb250LWZhbWlseT0ic2Fucy1zZXJpZiIgZm9udC1zaXplPSIxNCIgbGVuZ3RoQWRqdXN0PSJzcGFjaW5nIiB0ZXh0TGVuZ3RoPSI4NCIgeD0iMTc1OSIgeT0iMTc4LjczNDQiPiYjMjY1OTc7JiMzNTgxMDsmIzI1MTUyOyYjMjYzNzc7JiMyNzQ2ODsmIzI1MTYzOzwvdGV4dD48L2c+PCEtLWVudGl0eSA/Pz8/Pz8tLT48ZyBpZD0iZWxlbV8mIzMzNzE5OyYjMjE0NjI7JiMyNzQ2ODsmIzI1MTYzOyYjMjQ2MzU7JiMyNTk2ODsiPjxyZWN0IGZpbGw9IiNGMUYxRjEiIGhlaWdodD0iNDQuOTg0NCIgcng9IjIuNSIgcnk9IjIuNSIgc3R5bGU9InN0cm9rZTojMTgxODE4O3N0cm9rZS13aWR0aDowLjU7IiB3aWR0aD0iMTI0IiB4PSIxOTAzIiB5PSIxNDUuNSIvPjxyZWN0IGZpbGw9IiNGMUYxRjEiIGhlaWdodD0iMTAiIHN0eWxlPSJzdHJva2U6IzE4MTgxODtzdHJva2Utd2lkdGg6MC41OyIgd2lkdGg9IjE1IiB4PSIyMDA3IiB5PSIxNTAuNSIvPjxyZWN0IGZpbGw9IiNGMUYxRjEiIGhlaWdodD0iMiIgc3R5bGU9InN0cm9rZTojMTgxODE4O3N0cm9rZS13aWR0aDowLjU7IiB3aWR0aD0iNCIgeD0iMjAwNSIgeT0iMTUyLjUiLz48cmVjdCBmaWxsPSIjRjFGMUYxIiBoZWlnaHQ9IjIiIHN0eWxlPSJzdHJva2U6IzE4MTgxODtzdHJva2Utd2lkdGg6MC41OyIgd2lkdGg9IjQiIHg9IjIwMDUiIHk9IjE1Ni41Ii8+PHRleHQgZmlsbD0iIzAwMDAwMCIgZm9udC1mYW1pbHk9InNhbnMtc2VyaWYiIGZvbnQtc2l6ZT0iMTQiIGxlbmd0aEFkanVzdD0ic3BhY2luZyIgdGV4dExlbmd0aD0iODQiIHg9IjE5MTgiIHk9IjE3OC43MzQ0Ij4mIzMzNzE5OyYjMjE0NjI7JiMyNzQ2ODsmIzI1MTYzOyYjMjQ2MzU7JiMyNTk2ODs8L3RleHQ+PC9nPjwhLS1lbnRpdHkgPz8/Py0tPjxnIGlkPSJlbGVtXyYjMjEwMjQ7JiMzODUwMDsmIzI3NDY4OyYjMjUxNjM7Ij48cmVjdCBmaWxsPSIjRjFGMUYxIiBoZWlnaHQ9IjQ0Ljk4NDQiIHJ4PSIyLjUiIHJ5PSIyLjUiIHN0eWxlPSJzdHJva2U6IzE4MTgxODtzdHJva2Utd2lkdGg6MC41OyIgd2lkdGg9Ijk2IiB4PSIxNDk3IiB5PSIyNTAuNSIvPjxyZWN0IGZpbGw9IiNGMUYxRjEiIGhlaWdodD0iMTAiIHN0eWxlPSJzdHJva2U6IzE4MTgxODtzdHJva2Utd2lkdGg6MC41OyIgd2lkdGg9IjE1IiB4PSIxNTczIiB5PSIyNTUuNSIvPjxyZWN0IGZpbGw9IiNGMUYxRjEiIGhlaWdodD0iMiIgc3R5bGU9InN0cm9rZTojMTgxODE4O3N0cm9rZS13aWR0aDowLjU7IiB3aWR0aD0iNCIgeD0iMTU3MSIgeT0iMjU3LjUiLz48cmVjdCBmaWxsPSIjRjFGMUYxIiBoZWlnaHQ9IjIiIHN0eWxlPSJzdHJva2U6IzE4MTgxODtzdHJva2Utd2lkdGg6MC41OyIgd2lkdGg9IjQiIHg9IjE1NzEiIHk9IjI2MS41Ii8+PHRleHQgZmlsbD0iIzAwMDAwMCIgZm9udC1mYW1pbHk9InNhbnMtc2VyaWYiIGZvbnQtc2l6ZT0iMTQiIGxlbmd0aEFkanVzdD0ic3BhY2luZyIgdGV4dExlbmd0aD0iNTYiIHg9IjE1MTIiIHk9IjI4My43MzQ0Ij4mIzIxMDI0OyYjMzg1MDA7JiMyNzQ2ODsmIzI1MTYzOzwvdGV4dD48L2c+PCEtLWVudGl0eSA/Pz8/Pz8tLT48ZyBpZD0iZWxlbV8mIzI1MjA5OyYjMzczMjc7JiMyMTAyNDsmIzM4NTAwOyYjMjc0Njg7JiMyNTE2MzsiPjxyZWN0IGZpbGw9IiNGMUYxRjEiIGhlaWdodD0iNDQuOTg0NCIgcng9IjIuNSIgcnk9IjIuNSIgc3R5bGU9InN0cm9rZTojMTgxODE4O3N0cm9rZS13aWR0aDowLjU7IiB3aWR0aD0iMTI0IiB4PSIxNjI4IiB5PSIyNTAuNSIvPjxyZWN0IGZpbGw9IiNGMUYxRjEiIGhlaWdodD0iMTAiIHN0eWxlPSJzdHJva2U6IzE4MTgxODtzdHJva2Utd2lkdGg6MC41OyIgd2lkdGg9IjE1IiB4PSIxNzMyIiB5PSIyNTUuNSIvPjxyZWN0IGZpbGw9IiNGMUYxRjEiIGhlaWdodD0iMiIgc3R5bGU9InN0cm9rZTojMTgxODE4O3N0cm9rZS13aWR0aDowLjU7IiB3aWR0aD0iNCIgeD0iMTczMCIgeT0iMjU3LjUiLz48cmVjdCBmaWxsPSIjRjFGMUYxIiBoZWlnaHQ9IjIiIHN0eWxlPSJzdHJva2U6IzE4MTgxODtzdHJva2Utd2lkdGg6MC41OyIgd2lkdGg9IjQiIHg9IjE3MzAiIHk9IjI2MS41Ii8+PHRleHQgZmlsbD0iIzAwMDAwMCIgZm9udC1mYW1pbHk9InNhbnMtc2VyaWYiIGZvbnQtc2l6ZT0iMTQiIGxlbmd0aEFkanVzdD0ic3BhY2luZyIgdGV4dExlbmd0aD0iODQiIHg9IjE2NDMiIHk9IjI4My43MzQ0Ij4mIzI1MjA5OyYjMzczMjc7JiMyMTAyNDsmIzM4NTAwOyYjMjc0Njg7JiMyNTE2Mzs8L3RleHQ+PC9nPjwhLS1lbnRpdHkgPz8/Pz8/Pz8tLT48ZyBpZD0iZWxlbV8mIzI2NjgxOyYjMjU0NTQ7JiMyMjk5NTsmIzIxNTE3OyYjMjY1OTc7JiMzNTgxMDsmIzI3NDY4OyYjMjUxNjM7Ij48cmVjdCBmaWxsPSIjRjFGMUYxIiBoZWlnaHQ9IjQ0Ljk4NDQiIHJ4PSIyLjUiIHJ5PSIyLjUiIHN0eWxlPSJzdHJva2U6IzE4MTgxODtzdHJva2Utd2lkdGg6MC41OyIgd2lkdGg9IjE1MiIgeD0iMTc4NyIgeT0iMjUwLjUiLz48cmVjdCBmaWxsPSIjRjFGMUYxIiBoZWlnaHQ9IjEwIiBzdHlsZT0ic3Ryb2tlOiMxODE4MTg7c3Ryb2tlLXdpZHRoOjAuNTsiIHdpZHRoPSIxNSIgeD0iMTkxOSIgeT0iMjU1LjUiLz48cmVjdCBmaWxsPSIjRjFGMUYxIiBoZWlnaHQ9IjIiIHN0eWxlPSJzdHJva2U6IzE4MTgxODtzdHJva2Utd2lkdGg6MC41OyIgd2lkdGg9IjQiIHg9IjE5MTciIHk9IjI1Ny41Ii8+PHJlY3QgZmlsbD0iI0YxRjFGMSIgaGVpZ2h0PSIyIiBzdHlsZT0ic3Ryb2tlOiMxODE4MTg7c3Ryb2tlLXdpZHRoOjAuNTsiIHdpZHRoPSI0IiB4PSIxOTE3IiB5PSIyNjEuNSIvPjx0ZXh0IGZpbGw9IiMwMDAwMDAiIGZvbnQtZmFtaWx5PSJzYW5zLXNlcmlmIiBmb250LXNpemU9IjE0IiBsZW5ndGhBZGp1c3Q9InNwYWNpbmciIHRleHRMZW5ndGg9IjExMiIgeD0iMTgwMiIgeT0iMjgzLjczNDQiPiYjMjY2ODE7JiMyNTQ1NDsmIzIyOTk1OyYjMjE1MTc7JiMyNjU5NzsmIzM1ODEwOyYjMjc0Njg7JiMyNTE2Mzs8L3RleHQ+PC9nPjwhLS1lbnRpdHkgPz8/Pz8/Pz8tLT48ZyBpZD0iZWxlbV8mIzI2NjgxOyYjMjU0NTQ7JiMyNDYxNTsmIzIxMDM1OyYjMjY1OTc7JiMzNTgxMDsmIzI3NDY4OyYjMjUxNjM7Ij48cmVjdCBmaWxsPSIjRjFGMUYxIiBoZWlnaHQ9IjQ0Ljk4NDQiIHJ4PSIyLjUiIHJ5PSIyLjUiIHN0eWxlPSJzdHJva2U6IzE4MTgxODtzdHJva2Utd2lkdGg6MC41OyIgd2lkdGg9IjE1MiIgeD0iMTk3NCIgeT0iMjUwLjUiLz48cmVjdCBmaWxsPSIjRjFGMUYxIiBoZWlnaHQ9IjEwIiBzdHlsZT0ic3Ryb2tlOiMxODE4MTg7c3Ryb2tlLXdpZHRoOjAuNTsiIHdpZHRoPSIxNSIgeD0iMjEwNiIgeT0iMjU1LjUiLz48cmVjdCBmaWxsPSIjRjFGMUYxIiBoZWlnaHQ9IjIiIHN0eWxlPSJzdHJva2U6IzE4MTgxODtzdHJva2Utd2lkdGg6MC41OyIgd2lkdGg9IjQiIHg9IjIxMDQiIHk9IjI1Ny41Ii8+PHJlY3QgZmlsbD0iI0YxRjFGMSIgaGVpZ2h0PSIyIiBzdHlsZT0ic3Ryb2tlOiMxODE4MTg7c3Ryb2tlLXdpZHRoOjAuNTsiIHdpZHRoPSI0IiB4PSIyMTA0IiB5PSIyNjEuNSIvPjx0ZXh0IGZpbGw9IiMwMDAwMDAiIGZvbnQtZmFtaWx5PSJzYW5zLXNlcmlmIiBmb250LXNpemU9IjE0IiBsZW5ndGhBZGp1c3Q9InNwYWNpbmciIHRleHRMZW5ndGg9IjExMiIgeD0iMTk4OSIgeT0iMjgzLjczNDQiPiYjMjY2ODE7JiMyNTQ1NDsmIzI0NjE1OyYjMjEwMzU7JiMyNjU5NzsmIzM1ODEwOyYjMjc0Njg7JiMyNTE2Mzs8L3RleHQ+PC9nPjwhLS1lbnRpdHkgPz8/Pz8/Pz8/Py0tPjxnIGlkPSJlbGVtXyYjMjY2ODE7JiMyNTQ1NDsmIzIyMzIwOyYjMjEzMDY7JiMzMzcxOTsmIzI0NDcxOyYjMjc0Njg7JiMyNTE2MzsmIzI1OTY4OyYjMzczMjc7Ij48cmVjdCBmaWxsPSIjRjFGMUYxIiBoZWlnaHQ9IjQ0Ljk4NDQiIHJ4PSIyLjUiIHJ5PSIyLjUiIHN0eWxlPSJzdHJva2U6IzE4MTgxODtzdHJva2Utd2lkdGg6MC41OyIgd2lkdGg9IjE4MCIgeD0iMTQ3MSIgeT0iNDAwLjUiLz48cmVjdCBmaWxsPSIjRjFGMUYxIiBoZWlnaHQ9IjEwIiBzdHlsZT0ic3Ryb2tlOiMxODE4MTg7c3Ryb2tlLXdpZHRoOjAuNTsiIHdpZHRoPSIxNSIgeD0iMTYzMSIgeT0iNDA1LjUiLz48cmVjdCBmaWxsPSIjRjFGMUYxIiBoZWlnaHQ9IjIiIHN0eWxlPSJzdHJva2U6IzE4MTgxODtzdHJva2Utd2lkdGg6MC41OyIgd2lkdGg9IjQiIHg9IjE2MjkiIHk9IjQwNy41Ii8+PHJlY3QgZmlsbD0iI0YxRjFGMSIgaGVpZ2h0PSIyIiBzdHlsZT0ic3Ryb2tlOiMxODE4MTg7c3Ryb2tlLXdpZHRoOjAuNTsiIHdpZHRoPSI0IiB4PSIxNjI5IiB5PSI0MTEuNSIvPjx0ZXh0IGZpbGw9IiMwMDAwMDAiIGZvbnQtZmFtaWx5PSJzYW5zLXNlcmlmIiBmb250LXNpemU9IjE0IiBsZW5ndGhBZGp1c3Q9InNwYWNpbmciIHRleHRMZW5ndGg9IjE0MCIgeD0iMTQ4NiIgeT0iNDMzLjczNDQiPiYjMjY2ODE7JiMyNTQ1NDsmIzIyMzIwOyYjMjEzMDY7JiMzMzcxOTsmIzI0NDcxOyYjMjc0Njg7JiMyNTE2MzsmIzI1OTY4OyYjMzczMjc7PC90ZXh0PjwvZz48IS0tZW50aXR5ID8/Pz8/Pz8/Pz8tLT48ZyBpZD0iZWxlbV8mIzI2NjgxOyYjMjU0NTQ7JiMyNDYxNTsmIzIxMDM1OyYjMzI0Nzk7JiMzNTc0NTsmIzI3NDY4OyYjMjUxNjM7JiMyNTk2ODsmIzM3MzI3OyI+PHJlY3QgZmlsbD0iI0YxRjFGMSIgaGVpZ2h0PSI0NC45ODQ0IiByeD0iMi41IiByeT0iMi41IiBzdHlsZT0ic3Ryb2tlOiMxODE4MTg7c3Ryb2tlLXdpZHRoOjAuNTsiIHdpZHRoPSIxODAiIHg9IjE2ODYiIHk9IjQwMC41Ii8+PHJlY3QgZmlsbD0iI0YxRjFGMSIgaGVpZ2h0PSIxMCIgc3R5bGU9InN0cm9rZTojMTgxODE4O3N0cm9rZS13aWR0aDowLjU7IiB3aWR0aD0iMTUiIHg9IjE4NDYiIHk9IjQwNS41Ii8+PHJlY3QgZmlsbD0iI0YxRjFGMSIgaGVpZ2h0PSIyIiBzdHlsZT0ic3Ryb2tlOiMxODE4MTg7c3Ryb2tlLXdpZHRoOjAuNTsiIHdpZHRoPSI0IiB4PSIxODQ0IiB5PSI0MDcuNSIvPjxyZWN0IGZpbGw9IiNGMUYxRjEiIGhlaWdodD0iMiIgc3R5bGU9InN0cm9rZTojMTgxODE4O3N0cm9rZS13aWR0aDowLjU7IiB3aWR0aD0iNCIgeD0iMTg0NCIgeT0iNDExLjUiLz48dGV4dCBmaWxsPSIjMDAwMDAwIiBmb250LWZhbWlseT0ic2Fucy1zZXJpZiIgZm9udC1zaXplPSIxNCIgbGVuZ3RoQWRqdXN0PSJzcGFjaW5nIiB0ZXh0TGVuZ3RoPSIxNDAiIHg9IjE3MDEiIHk9IjQzMy43MzQ0Ij4mIzI2NjgxOyYjMjU0NTQ7JiMyNDYxNTsmIzIxMDM1OyYjMzI0Nzk7JiMzNTc0NTsmIzI3NDY4OyYjMjUxNjM7JiMyNTk2ODsmIzM3MzI3OzwvdGV4dD48L2c+PCEtLWVudGl0eSA/Pz8/bj8/Py0tPjxnIGlkPSJlbGVtXyYjMzg1NDM7JiMyNjQyNjsmIzMzNzE5OyYjMjQ0NzE7biYjMjAwMTA7JiMyNzQ2ODsmIzI1MTYzOyI+PHJlY3QgZmlsbD0iI0YxRjFGMSIgaGVpZ2h0PSI0NC45ODQ0IiByeD0iMi41IiByeT0iMi41IiBzdHlsZT0ic3Ryb2tlOiMxODE4MTg7c3Ryb2tlLXdpZHRoOjAuNTsiIHdpZHRoPSIxNDUiIHg9IjE5MDEuNSIgeT0iNDAwLjUiLz48cmVjdCBmaWxsPSIjRjFGMUYxIiBoZWlnaHQ9IjEwIiBzdHlsZT0ic3Ryb2tlOiMxODE4MTg7c3Ryb2tlLXdpZHRoOjAuNTsiIHdpZHRoPSIxNSIgeD0iMjAyNi41IiB5PSI0MDUuNSIvPjxyZWN0IGZpbGw9IiNGMUYxRjEiIGhlaWdodD0iMiIgc3R5bGU9InN0cm9rZTojMTgxODE4O3N0cm9rZS13aWR0aDowLjU7IiB3aWR0aD0iNCIgeD0iMjAyNC41IiB5PSI0MDcuNSIvPjxyZWN0IGZpbGw9IiNGMUYxRjEiIGhlaWdodD0iMiIgc3R5bGU9InN0cm9rZTojMTgxODE4O3N0cm9rZS13aWR0aDowLjU7IiB3aWR0aD0iNCIgeD0iMjAyNC41IiB5PSI0MTEuNSIvPjx0ZXh0IGZpbGw9IiMwMDAwMDAiIGZvbnQtZmFtaWx5PSJzYW5zLXNlcmlmIiBmb250LXNpemU9IjE0IiBsZW5ndGhBZGp1c3Q9InNwYWNpbmciIHRleHRMZW5ndGg9IjEwNSIgeD0iMTkxNi41IiB5PSI0MzMuNzM0NCI+JiMzODU0MzsmIzI2NDI2OyYjMzM3MTk7JiMyNDQ3MTtuJiMyMDAxMDsmIzI3NDY4OyYjMjUxNjM7PC90ZXh0PjwvZz48IS0tZW50aXR5ID8/Pz8/Pz8/Pz8/LS0+PGcgaWQ9ImVsZW1fJiMyNjY4MTsmIzI1NDU0OyYjMjc0Njg7JiMyNTE2MzsmIzIxNTE3OyYjMjcxNjk7JiMzMTk0NjsmIzI2NTk3OyYjMzU4MTA7JiMyNzQ2ODsmIzI1MTYzOyI+PHJlY3QgZmlsbD0iI0YxRjFGMSIgaGVpZ2h0PSI0NC45ODQ0IiByeD0iMi41IiByeT0iMi41IiBzdHlsZT0ic3Ryb2tlOiMxODE4MTg7c3Ryb2tlLXdpZHRoOjAuNTsiIHdpZHRoPSIxOTQiIHg9IjIwODIiIHk9IjQwMC41Ii8+PHJlY3QgZmlsbD0iI0YxRjFGMSIgaGVpZ2h0PSIxMCIgc3R5bGU9InN0cm9rZTojMTgxODE4O3N0cm9rZS13aWR0aDowLjU7IiB3aWR0aD0iMTUiIHg9IjIyNTYiIHk9IjQwNS41Ii8+PHJlY3QgZmlsbD0iI0YxRjFGMSIgaGVpZ2h0PSIyIiBzdHlsZT0ic3Ryb2tlOiMxODE4MTg7c3Ryb2tlLXdpZHRoOjAuNTsiIHdpZHRoPSI0IiB4PSIyMjU0IiB5PSI0MDcuNSIvPjxyZWN0IGZpbGw9IiNGMUYxRjEiIGhlaWdodD0iMiIgc3R5bGU9InN0cm9rZTojMTgxODE4O3N0cm9rZS13aWR0aDowLjU7IiB3aWR0aD0iNCIgeD0iMjI1NCIgeT0iNDExLjUiLz48dGV4dCBmaWxsPSIjMDAwMDAwIiBmb250LWZhbWlseT0ic2Fucy1zZXJpZiIgZm9udC1zaXplPSIxNCIgbGVuZ3RoQWRqdXN0PSJzcGFjaW5nIiB0ZXh0TGVuZ3RoPSIxNTQiIHg9IjIwOTciIHk9IjQzMy43MzQ0Ij4mIzI2NjgxOyYjMjU0NTQ7JiMyNzQ2ODsmIzI1MTYzOyYjMjE1MTc7JiMyNzE2OTsmIzMxOTQ2OyYjMjY1OTc7JiMzNTgxMDsmIzI3NDY4OyYjMjUxNjM7PC90ZXh0PjwvZz48IS0tZW50aXR5ID8/Pz8tLT48ZyBpZD0iZWxlbV8mIzI2MzU2OyYjMjYwMzI7JiMyNzQ2ODsmIzI1MTYzOyI+PHJlY3QgZmlsbD0iI0YxRjFGMSIgaGVpZ2h0PSI0NC45ODQ0IiByeD0iMi41IiByeT0iMi41IiBzdHlsZT0ic3Ryb2tlOiMxODE4MTg7c3Ryb2tlLXdpZHRoOjAuNTsiIHdpZHRoPSI5NiIgeD0iMTUxMyIgeT0iNTA1LjUiLz48cmVjdCBmaWxsPSIjRjFGMUYxIiBoZWlnaHQ9IjEwIiBzdHlsZT0ic3Ryb2tlOiMxODE4MTg7c3Ryb2tlLXdpZHRoOjAuNTsiIHdpZHRoPSIxNSIgeD0iMTU4OSIgeT0iNTEwLjUiLz48cmVjdCBmaWxsPSIjRjFGMUYxIiBoZWlnaHQ9IjIiIHN0eWxlPSJzdHJva2U6IzE4MTgxODtzdHJva2Utd2lkdGg6MC41OyIgd2lkdGg9IjQiIHg9IjE1ODciIHk9IjUxMi41Ii8+PHJlY3QgZmlsbD0iI0YxRjFGMSIgaGVpZ2h0PSIyIiBzdHlsZT0ic3Ryb2tlOiMxODE4MTg7c3Ryb2tlLXdpZHRoOjAuNTsiIHdpZHRoPSI0IiB4PSIxNTg3IiB5PSI1MTYuNSIvPjx0ZXh0IGZpbGw9IiMwMDAwMDAiIGZvbnQtZmFtaWx5PSJzYW5zLXNlcmlmIiBmb250LXNpemU9IjE0IiBsZW5ndGhBZGp1c3Q9InNwYWNpbmciIHRleHRMZW5ndGg9IjU2IiB4PSIxNTI4IiB5PSI1MzguNzM0NCI+JiMyNjM1NjsmIzI2MDMyOyYjMjc0Njg7JiMyNTE2Mzs8L3RleHQ+PC9nPjwhLS1lbnRpdHkgPz8/Pz8/Pz8tLT48ZyBpZD0iZWxlbV8mIzI4MTU1OyYjMjExNTI7JiMyNzQ2ODsmIzI2MzU0OyYjMjEwNDA7JiMyNzQ2ODsmIzIxMzMzOyYjMjAwMTM7Ij48cmVjdCBmaWxsPSIjRjFGMUYxIiBoZWlnaHQ9IjQ0Ljk4NDQiIHJ4PSIyLjUiIHJ5PSIyLjUiIHN0eWxlPSJzdHJva2U6IzE4MTgxODtzdHJva2Utd2lkdGg6MC41OyIgd2lkdGg9IjE1MiIgeD0iMzAiIHk9IjQwMC41Ii8+PHJlY3QgZmlsbD0iI0YxRjFGMSIgaGVpZ2h0PSIxMCIgc3R5bGU9InN0cm9rZTojMTgxODE4O3N0cm9rZS13aWR0aDowLjU7IiB3aWR0aD0iMTUiIHg9IjE2MiIgeT0iNDA1LjUiLz48cmVjdCBmaWxsPSIjRjFGMUYxIiBoZWlnaHQ9IjIiIHN0eWxlPSJzdHJva2U6IzE4MTgxODtzdHJva2Utd2lkdGg6MC41OyIgd2lkdGg9IjQiIHg9IjE2MCIgeT0iNDA3LjUiLz48cmVjdCBmaWxsPSIjRjFGMUYxIiBoZWlnaHQ9IjIiIHN0eWxlPSJzdHJva2U6IzE4MTgxODtzdHJva2Utd2lkdGg6MC41OyIgd2lkdGg9IjQiIHg9IjE2MCIgeT0iNDExLjUiLz48dGV4dCBmaWxsPSIjMDAwMDAwIiBmb250LWZhbWlseT0ic2Fucy1zZXJpZiIgZm9udC1zaXplPSIxNCIgbGVuZ3RoQWRqdXN0PSJzcGFjaW5nIiB0ZXh0TGVuZ3RoPSIxMTIiIHg9IjQ1IiB5PSI0MzMuNzM0NCI+JiMyODE1NTsmIzIxMTUyOyYjMjc0Njg7JiMyNjM1NDsmIzIxMDQwOyYjMjc0Njg7JiMyMTMzMzsmIzIwMDEzOzwvdGV4dD48L2c+PCEtLWVudGl0eSA/Pz8/Pz8/Pz8/Pz8/LD8/Pz8/Pz8tLT48ZyBpZD0iZWxlbV8mIzIxMDI0OyYjMzg1MDA7JiMyNTM1MTsmIzIzNDUwOyYjMjc0Njg7JiMyMTMzMzsmIzM3MzI0OyYjMzg3NTQ7JiMzMDM0MDsmIzI1MzUxOyYjMjM0NTA7JiMyNzQ2ODsmIzI2MzU0OywmIzI0MTgyOyYjMjYzNTY7JiMyNjAzMjsmIzI3NDY4OyYjMjEzMzM7JiMyMzU1MzsmIzM4NzU0OyI+PHJlY3QgZmlsbD0iI0YxRjFGMSIgaGVpZ2h0PSI0NC45ODQ0IiByeD0iMi41IiByeT0iMi41IiBzdHlsZT0ic3Ryb2tlOiMxODE4MTg7c3Ryb2tlLXdpZHRoOjAuNTsiIHdpZHRoPSIzMjciIHg9IjIxNy41IiB5PSI0MDAuNSIvPjxyZWN0IGZpbGw9IiNGMUYxRjEiIGhlaWdodD0iMTAiIHN0eWxlPSJzdHJva2U6IzE4MTgxODtzdHJva2Utd2lkdGg6MC41OyIgd2lkdGg9IjE1IiB4PSI1MjQuNSIgeT0iNDA1LjUiLz48cmVjdCBmaWxsPSIjRjFGMUYxIiBoZWlnaHQ9IjIiIHN0eWxlPSJzdHJva2U6IzE4MTgxODtzdHJva2Utd2lkdGg6MC41OyIgd2lkdGg9IjQiIHg9IjUyMi41IiB5PSI0MDcuNSIvPjxyZWN0IGZpbGw9IiNGMUYxRjEiIGhlaWdodD0iMiIgc3R5bGU9InN0cm9rZTojMTgxODE4O3N0cm9rZS13aWR0aDowLjU7IiB3aWR0aD0iNCIgeD0iNTIyLjUiIHk9IjQxMS41Ii8+PHRleHQgZmlsbD0iIzAwMDAwMCIgZm9udC1mYW1pbHk9InNhbnMtc2VyaWYiIGZvbnQtc2l6ZT0iMTQiIGxlbmd0aEFkanVzdD0ic3BhY2luZyIgdGV4dExlbmd0aD0iMjg3IiB4PSIyMzIuNSIgeT0iNDMzLjczNDQiPiYjMjEwMjQ7JiMzODUwMDsmIzI1MzUxOyYjMjM0NTA7JiMyNzQ2ODsmIzIxMzMzOyYjMzczMjQ7JiMzODc1NDsmIzMwMzQwOyYjMjUzNTE7JiMyMzQ1MDsmIzI3NDY4OyYjMjYzNTQ7LCYjMjQxODI7JiMyNjM1NjsmIzI2MDMyOyYjMjc0Njg7JiMyMTMzMzsmIzIzNTUzOyYjMzg3NTQ7PC90ZXh0PjwvZz48IS0tZW50aXR5ID8/Pz8/Pz8/Pz9JRD8/Pz8/LS0+PGcgaWQ9ImVsZW1fJiMyNjU5NzsmIzM1ODEwOyYjMjc0Njg7JiMyMTMzMzsmIzM0OTIwOyYjMzczMjQ7JiMyNTM1MTsmIzIzNDUwOyYjMjc0Njg7JiMyMTMzMztJRCYjMzAzNDA7JiMyNTE1MjsmIzI2Mzc3OyYjMjc0Njg7JiMyNjM1NDsiPjxyZWN0IGZpbGw9IiNGMUYxRjEiIGhlaWdodD0iNDQuOTg0NCIgcng9IjIuNSIgcnk9IjIuNSIgc3R5bGU9InN0cm9rZTojMTgxODE4O3N0cm9rZS13aWR0aDowLjU7IiB3aWR0aD0iMjY0IiB4PSIzMCIgeT0iNTA1LjUiLz48cmVjdCBmaWxsPSIjRjFGMUYxIiBoZWlnaHQ9IjEwIiBzdHlsZT0ic3Ryb2tlOiMxODE4MTg7c3Ryb2tlLXdpZHRoOjAuNTsiIHdpZHRoPSIxNSIgeD0iMjc0IiB5PSI1MTAuNSIvPjxyZWN0IGZpbGw9IiNGMUYxRjEiIGhlaWdodD0iMiIgc3R5bGU9InN0cm9rZTojMTgxODE4O3N0cm9rZS13aWR0aDowLjU7IiB3aWR0aD0iNCIgeD0iMjcyIiB5PSI1MTIuNSIvPjxyZWN0IGZpbGw9IiNGMUYxRjEiIGhlaWdodD0iMiIgc3R5bGU9InN0cm9rZTojMTgxODE4O3N0cm9rZS13aWR0aDowLjU7IiB3aWR0aD0iNCIgeD0iMjcyIiB5PSI1MTYuNSIvPjx0ZXh0IGZpbGw9IiMwMDAwMDAiIGZvbnQtZmFtaWx5PSJzYW5zLXNlcmlmIiBmb250LXNpemU9IjE0IiBsZW5ndGhBZGp1c3Q9InNwYWNpbmciIHRleHRMZW5ndGg9IjIyNCIgeD0iNDUiIHk9IjUzOC43MzQ0Ij4mIzI2NTk3OyYjMzU4MTA7JiMyNzQ2ODsmIzIxMzMzOyYjMzQ5MjA7JiMzNzMyNDsmIzI1MzUxOyYjMjM0NTA7JiMyNzQ2ODsmIzIxMzMzO0lEJiMzMDM0MDsmIzI1MTUyOyYjMjYzNzc7JiMyNzQ2ODsmIzI2MzU0OzwvdGV4dD48L2c+PCEtLWVudGl0eSA/Pz8/Pz8/Py0tPjxnIGlkPSJlbGVtXyYjMjYzNTY7JiMyNjAzMjsmIzI3NDY4OyYjMjEzMzM7JiMyNzQ2ODsmIzI2MzU0OyYjMjA0NDk7JiMyNDY4NzsiPjxyZWN0IGZpbGw9IiNGMUYxRjEiIGhlaWdodD0iNDQuOTg0NCIgcng9IjIuNSIgcnk9IjIuNSIgc3R5bGU9InN0cm9rZTojMTgxODE4O3N0cm9rZS13aWR0aDowLjU7IiB3aWR0aD0iMTUyIiB4PSIzMjkiIHk9IjUwNS41Ii8+PHJlY3QgZmlsbD0iI0YxRjFGMSIgaGVpZ2h0PSIxMCIgc3R5bGU9InN0cm9rZTojMTgxODE4O3N0cm9rZS13aWR0aDowLjU7IiB3aWR0aD0iMTUiIHg9IjQ2MSIgeT0iNTEwLjUiLz48cmVjdCBmaWxsPSIjRjFGMUYxIiBoZWlnaHQ9IjIiIHN0eWxlPSJzdHJva2U6IzE4MTgxODtzdHJva2Utd2lkdGg6MC41OyIgd2lkdGg9IjQiIHg9IjQ1OSIgeT0iNTEyLjUiLz48cmVjdCBmaWxsPSIjRjFGMUYxIiBoZWlnaHQ9IjIiIHN0eWxlPSJzdHJva2U6IzE4MTgxODtzdHJva2Utd2lkdGg6MC41OyIgd2lkdGg9IjQiIHg9IjQ1OSIgeT0iNTE2LjUiLz48dGV4dCBmaWxsPSIjMDAwMDAwIiBmb250LWZhbWlseT0ic2Fucy1zZXJpZiIgZm9udC1zaXplPSIxNCIgbGVuZ3RoQWRqdXN0PSJzcGFjaW5nIiB0ZXh0TGVuZ3RoPSIxMTIiIHg9IjM0NCIgeT0iNTM4LjczNDQiPiYjMjYzNTY7JiMyNjAzMjsmIzI3NDY4OyYjMjEzMzM7JiMyNzQ2ODsmIzI2MzU0OyYjMjA0NDk7JiMyNDY4Nzs8L3RleHQ+PC9nPjwhLS1lbnRpdHkgPz8/Py0tPjxnIGlkPSJlbGVtXyYjMjgxNTU7JiMyMTE1MjsmIzI3NDY4OyYjMjYzNTQ7Ij48cmVjdCBmaWxsPSIjRjFGMUYxIiBoZWlnaHQ9IjQ0Ljk4NDQiIHJ4PSIyLjUiIHJ5PSIyLjUiIHN0eWxlPSJzdHJva2U6IzE4MTgxODtzdHJva2Utd2lkdGg6MC41OyIgd2lkdGg9Ijk2IiB4PSIyNDA2IiB5PSI0MDAuNSIvPjxyZWN0IGZpbGw9IiNGMUYxRjEiIGhlaWdodD0iMTAiIHN0eWxlPSJzdHJva2U6IzE4MTgxODtzdHJva2Utd2lkdGg6MC41OyIgd2lkdGg9IjE1IiB4PSIyNDgyIiB5PSI0MDUuNSIvPjxyZWN0IGZpbGw9IiNGMUYxRjEiIGhlaWdodD0iMiIgc3R5bGU9InN0cm9rZTojMTgxODE4O3N0cm9rZS13aWR0aDowLjU7IiB3aWR0aD0iNCIgeD0iMjQ4MCIgeT0iNDA3LjUiLz48cmVjdCBmaWxsPSIjRjFGMUYxIiBoZWlnaHQ9IjIiIHN0eWxlPSJzdHJva2U6IzE4MTgxODtzdHJva2Utd2lkdGg6MC41OyIgd2lkdGg9IjQiIHg9IjI0ODAiIHk9IjQxMS41Ii8+PHRleHQgZmlsbD0iIzAwMDAwMCIgZm9udC1mYW1pbHk9InNhbnMtc2VyaWYiIGZvbnQtc2l6ZT0iMTQiIGxlbmd0aEFkanVzdD0ic3BhY2luZyIgdGV4dExlbmd0aD0iNTYiIHg9IjI0MjEiIHk9IjQzMy43MzQ0Ij4mIzI4MTU1OyYjMjExNTI7JiMyNzQ2ODsmIzI2MzU0OzwvdGV4dD48L2c+PCEtLWVudGl0eSA/Pz8/Pz8tLT48ZyBpZD0iZWxlbV8mIzI2NTk3OyYjMzU4MTA7JiMyNTE1MjsmIzI2Mzc3OyYjMjc0Njg7JiMyNjM1NDsiPjxyZWN0IGZpbGw9IiNGMUYxRjEiIGhlaWdodD0iNDQuOTg0NCIgcng9IjIuNSIgcnk9IjIuNSIgc3R5bGU9InN0cm9rZTojMTgxODE4O3N0cm9rZS13aWR0aDowLjU7IiB3aWR0aD0iMTI0IiB4PSIyNjA4IiB5PSI0MDAuNSIvPjxyZWN0IGZpbGw9IiNGMUYxRjEiIGhlaWdodD0iMTAiIHN0eWxlPSJzdHJva2U6IzE4MTgxODtzdHJva2Utd2lkdGg6MC41OyIgd2lkdGg9IjE1IiB4PSIyNzEyIiB5PSI0MDUuNSIvPjxyZWN0IGZpbGw9IiNGMUYxRjEiIGhlaWdodD0iMiIgc3R5bGU9InN0cm9rZTojMTgxODE4O3N0cm9rZS13aWR0aDowLjU7IiB3aWR0aD0iNCIgeD0iMjcxMCIgeT0iNDA3LjUiLz48cmVjdCBmaWxsPSIjRjFGMUYxIiBoZWlnaHQ9IjIiIHN0eWxlPSJzdHJva2U6IzE4MTgxODtzdHJva2Utd2lkdGg6MC41OyIgd2lkdGg9IjQiIHg9IjI3MTAiIHk9IjQxMS41Ii8+PHRleHQgZmlsbD0iIzAwMDAwMCIgZm9udC1mYW1pbHk9InNhbnMtc2VyaWYiIGZvbnQtc2l6ZT0iMTQiIGxlbmd0aEFkanVzdD0ic3BhY2luZyIgdGV4dExlbmd0aD0iODQiIHg9IjI2MjMiIHk9IjQzMy43MzQ0Ij4mIzI2NTk3OyYjMzU4MTA7JiMyNTE1MjsmIzI2Mzc3OyYjMjc0Njg7JiMyNjM1NDs8L3RleHQ+PC9nPjwhLS1lbnRpdHkgPz8/Pz8/LS0+PGcgaWQ9ImVsZW1fJiMzMzcxOTsmIzIxNDYyOyYjMjc0Njg7JiMyNjM1NDsmIzI0NjM1OyYjMjU5Njg7Ij48cmVjdCBmaWxsPSIjRjFGMUYxIiBoZWlnaHQ9IjQ0Ljk4NDQiIHJ4PSIyLjUiIHJ5PSIyLjUiIHN0eWxlPSJzdHJva2U6IzE4MTgxODtzdHJva2Utd2lkdGg6MC41OyIgd2lkdGg9IjEyNCIgeD0iMjk0OSIgeT0iNDAwLjUiLz48cmVjdCBmaWxsPSIjRjFGMUYxIiBoZWlnaHQ9IjEwIiBzdHlsZT0ic3Ryb2tlOiMxODE4MTg7c3Ryb2tlLXdpZHRoOjAuNTsiIHdpZHRoPSIxNSIgeD0iMzA1MyIgeT0iNDA1LjUiLz48cmVjdCBmaWxsPSIjRjFGMUYxIiBoZWlnaHQ9IjIiIHN0eWxlPSJzdHJva2U6IzE4MTgxODtzdHJva2Utd2lkdGg6MC41OyIgd2lkdGg9IjQiIHg9IjMwNTEiIHk9IjQwNy41Ii8+PHJlY3QgZmlsbD0iI0YxRjFGMSIgaGVpZ2h0PSIyIiBzdHlsZT0ic3Ryb2tlOiMxODE4MTg7c3Ryb2tlLXdpZHRoOjAuNTsiIHdpZHRoPSI0IiB4PSIzMDUxIiB5PSI0MTEuNSIvPjx0ZXh0IGZpbGw9IiMwMDAwMDAiIGZvbnQtZmFtaWx5PSJzYW5zLXNlcmlmIiBmb250LXNpemU9IjE0IiBsZW5ndGhBZGp1c3Q9InNwYWNpbmciIHRleHRMZW5ndGg9Ijg0IiB4PSIyOTY0IiB5PSI0MzMuNzM0NCI+JiMzMzcxOTsmIzIxNDYyOyYjMjc0Njg7JiMyNjM1NDsmIzI0NjM1OyYjMjU5Njg7PC90ZXh0PjwvZz48IS0tZW50aXR5ID8/Pz8tLT48ZyBpZD0iZWxlbV8mIzIxMDI0OyYjMzg1MDA7JiMyNzQ2ODsmIzI2MzU0OyI+PHJlY3QgZmlsbD0iI0YxRjFGMSIgaGVpZ2h0PSI0NC45ODQ0IiByeD0iMi41IiByeT0iMi41IiBzdHlsZT0ic3Ryb2tlOiMxODE4MTg7c3Ryb2tlLXdpZHRoOjAuNTsiIHdpZHRoPSI5NiIgeD0iMzE5OSIgeT0iNDAwLjUiLz48cmVjdCBmaWxsPSIjRjFGMUYxIiBoZWlnaHQ9IjEwIiBzdHlsZT0ic3Ryb2tlOiMxODE4MTg7c3Ryb2tlLXdpZHRoOjAuNTsiIHdpZHRoPSIxNSIgeD0iMzI3NSIgeT0iNDA1LjUiLz48cmVjdCBmaWxsPSIjRjFGMUYxIiBoZWlnaHQ9IjIiIHN0eWxlPSJzdHJva2U6IzE4MTgxODtzdHJva2Utd2lkdGg6MC41OyIgd2lkdGg9IjQiIHg9IjMyNzMiIHk9IjQwNy41Ii8+PHJlY3QgZmlsbD0iI0YxRjFGMSIgaGVpZ2h0PSIyIiBzdHlsZT0ic3Ryb2tlOiMxODE4MTg7c3Ryb2tlLXdpZHRoOjAuNTsiIHdpZHRoPSI0IiB4PSIzMjczIiB5PSI0MTEuNSIvPjx0ZXh0IGZpbGw9IiMwMDAwMDAiIGZvbnQtZmFtaWx5PSJzYW5zLXNlcmlmIiBmb250LXNpemU9IjE0IiBsZW5ndGhBZGp1c3Q9InNwYWNpbmciIHRleHRMZW5ndGg9IjU2IiB4PSIzMjE0IiB5PSI0MzMuNzM0NCI+JiMyMTAyNDsmIzM4NTAwOyYjMjc0Njg7JiMyNjM1NDs8L3RleHQ+PC9nPjwhLS1lbnRpdHkgPz8/Pz8/LS0+PGcgaWQ9ImVsZW1fJiMyNTIwOTsmIzM3MzI3OyYjMjEwMjQ7JiMzODUwMDsmIzI3NDY4OyYjMjYzNTQ7Ij48cmVjdCBmaWxsPSIjRjFGMUYxIiBoZWlnaHQ9IjQ0Ljk4NDQiIHJ4PSIyLjUiIHJ5PSIyLjUiIHN0eWxlPSJzdHJva2U6IzE4MTgxODtzdHJva2Utd2lkdGg6MC41OyIgd2lkdGg9IjEyNCIgeD0iMjM5MyIgeT0iNTA1LjUiLz48cmVjdCBmaWxsPSIjRjFGMUYxIiBoZWlnaHQ9IjEwIiBzdHlsZT0ic3Ryb2tlOiMxODE4MTg7c3Ryb2tlLXdpZHRoOjAuNTsiIHdpZHRoPSIxNSIgeD0iMjQ5NyIgeT0iNTEwLjUiLz48cmVjdCBmaWxsPSIjRjFGMUYxIiBoZWlnaHQ9IjIiIHN0eWxlPSJzdHJva2U6IzE4MTgxODtzdHJva2Utd2lkdGg6MC41OyIgd2lkdGg9IjQiIHg9IjI0OTUiIHk9IjUxMi41Ii8+PHJlY3QgZmlsbD0iI0YxRjFGMSIgaGVpZ2h0PSIyIiBzdHlsZT0ic3Ryb2tlOiMxODE4MTg7c3Ryb2tlLXdpZHRoOjAuNTsiIHdpZHRoPSI0IiB4PSIyNDk1IiB5PSI1MTYuNSIvPjx0ZXh0IGZpbGw9IiMwMDAwMDAiIGZvbnQtZmFtaWx5PSJzYW5zLXNlcmlmIiBmb250LXNpemU9IjE0IiBsZW5ndGhBZGp1c3Q9InNwYWNpbmciIHRleHRMZW5ndGg9Ijg0IiB4PSIyNDA4IiB5PSI1MzguNzM0NCI+JiMyNTIwOTsmIzM3MzI3OyYjMjEwMjQ7JiMzODUwMDsmIzI3NDY4OyYjMjYzNTQ7PC90ZXh0PjwvZz48IS0tZW50aXR5ID8/Pz8tLT48ZyBpZD0iZWxlbV8mIzI2NTk3OyYjMzU4MTA7JiMyNzQ2ODsmIzI2MzU0OyI+PHJlY3QgZmlsbD0iI0YxRjFGMSIgaGVpZ2h0PSI0NC45ODQ0IiByeD0iMi41IiByeT0iMi41IiBzdHlsZT0ic3Ryb2tlOiMxODE4MTg7c3Ryb2tlLXdpZHRoOjAuNTsiIHdpZHRoPSI5NiIgeD0iMjU1MiIgeT0iNTA1LjUiLz48cmVjdCBmaWxsPSIjRjFGMUYxIiBoZWlnaHQ9IjEwIiBzdHlsZT0ic3Ryb2tlOiMxODE4MTg7c3Ryb2tlLXdpZHRoOjAuNTsiIHdpZHRoPSIxNSIgeD0iMjYyOCIgeT0iNTEwLjUiLz48cmVjdCBmaWxsPSIjRjFGMUYxIiBoZWlnaHQ9IjIiIHN0eWxlPSJzdHJva2U6IzE4MTgxODtzdHJva2Utd2lkdGg6MC41OyIgd2lkdGg9IjQiIHg9IjI2MjYiIHk9IjUxMi41Ii8+PHJlY3QgZmlsbD0iI0YxRjFGMSIgaGVpZ2h0PSIyIiBzdHlsZT0ic3Ryb2tlOiMxODE4MTg7c3Ryb2tlLXdpZHRoOjAuNTsiIHdpZHRoPSI0IiB4PSIyNjI2IiB5PSI1MTYuNSIvPjx0ZXh0IGZpbGw9IiMwMDAwMDAiIGZvbnQtZmFtaWx5PSJzYW5zLXNlcmlmIiBmb250LXNpemU9IjE0IiBsZW5ndGhBZGp1c3Q9InNwYWNpbmciIHRleHRMZW5ndGg9IjU2IiB4PSIyNTY3IiB5PSI1MzguNzM0NCI+JiMyNjU5NzsmIzM1ODEwOyYjMjc0Njg7JiMyNjM1NDs8L3RleHQ+PC9nPjwhLS1lbnRpdHkgPz8/Pz8/P24/Pz8tLT48ZyBpZD0iZWxlbV8mIzI2NTk3OyYjMzU4MTA7JiMyNTc3MzsmIzI1OTE4OyYjMjc0MjU7JiMyNTk2ODsmIzIxMDY5O24mIzMwMzQwOyYjMjc0Njg7JiMyNjM1NDsiPjxyZWN0IGZpbGw9IiNGMUYxRjEiIGhlaWdodD0iNDQuOTg0NCIgcng9IjIuNSIgcnk9IjIuNSIgc3R5bGU9InN0cm9rZTojMTgxODE4O3N0cm9rZS13aWR0aDowLjU7IiB3aWR0aD0iMTg3IiB4PSIyNjgzLjUiIHk9IjUwNS41Ii8+PHJlY3QgZmlsbD0iI0YxRjFGMSIgaGVpZ2h0PSIxMCIgc3R5bGU9InN0cm9rZTojMTgxODE4O3N0cm9rZS13aWR0aDowLjU7IiB3aWR0aD0iMTUiIHg9IjI4NTAuNSIgeT0iNTEwLjUiLz48cmVjdCBmaWxsPSIjRjFGMUYxIiBoZWlnaHQ9IjIiIHN0eWxlPSJzdHJva2U6IzE4MTgxODtzdHJva2Utd2lkdGg6MC41OyIgd2lkdGg9IjQiIHg9IjI4NDguNSIgeT0iNTEyLjUiLz48cmVjdCBmaWxsPSIjRjFGMUYxIiBoZWlnaHQ9IjIiIHN0eWxlPSJzdHJva2U6IzE4MTgxODtzdHJva2Utd2lkdGg6MC41OyIgd2lkdGg9IjQiIHg9IjI4NDguNSIgeT0iNTE2LjUiLz48dGV4dCBmaWxsPSIjMDAwMDAwIiBmb250LWZhbWlseT0ic2Fucy1zZXJpZiIgZm9udC1zaXplPSIxNCIgbGVuZ3RoQWRqdXN0PSJzcGFjaW5nIiB0ZXh0TGVuZ3RoPSIxNDciIHg9IjI2OTguNSIgeT0iNTM4LjczNDQiPiYjMjY1OTc7JiMzNTgxMDsmIzI1NzczOyYjMjU5MTg7JiMyNzQyNTsmIzI1OTY4OyYjMjEwNjk7biYjMzAzNDA7JiMyNzQ2ODsmIzI2MzU0OzwvdGV4dD48L2c+PCEtLWVudGl0eSA/Pz8/Pz8/Pz8/Py0tPjxnIGlkPSJlbGVtXyYjMjU3NzM7JiMyNTkxODsmIzI3NDY4OyYjMjYzNTQ7JiMyNDE4MjsmIzI2MzU2OyYjMjYwMzI7JiMyNTc3MzsmIzI1OTE4OyYjMjc0MjU7JiMyNTk2ODsiPjxyZWN0IGZpbGw9IiNGMUYxRjEiIGhlaWdodD0iNDQuOTg0NCIgcng9IjIuNSIgcnk9IjIuNSIgc3R5bGU9InN0cm9rZTojMTgxODE4O3N0cm9rZS13aWR0aDowLjU7IiB3aWR0aD0iMTk0IiB4PSIyOTA2IiB5PSI1MDUuNSIvPjxyZWN0IGZpbGw9IiNGMUYxRjEiIGhlaWdodD0iMTAiIHN0eWxlPSJzdHJva2U6IzE4MTgxODtzdHJva2Utd2lkdGg6MC41OyIgd2lkdGg9IjE1IiB4PSIzMDgwIiB5PSI1MTAuNSIvPjxyZWN0IGZpbGw9IiNGMUYxRjEiIGhlaWdodD0iMiIgc3R5bGU9InN0cm9rZTojMTgxODE4O3N0cm9rZS13aWR0aDowLjU7IiB3aWR0aD0iNCIgeD0iMzA3OCIgeT0iNTEyLjUiLz48cmVjdCBmaWxsPSIjRjFGMUYxIiBoZWlnaHQ9IjIiIHN0eWxlPSJzdHJva2U6IzE4MTgxODtzdHJva2Utd2lkdGg6MC41OyIgd2lkdGg9IjQiIHg9IjMwNzgiIHk9IjUxNi41Ii8+PHRleHQgZmlsbD0iIzAwMDAwMCIgZm9udC1mYW1pbHk9InNhbnMtc2VyaWYiIGZvbnQtc2l6ZT0iMTQiIGxlbmd0aEFkanVzdD0ic3BhY2luZyIgdGV4dExlbmd0aD0iMTU0IiB4PSIyOTIxIiB5PSI1MzguNzM0NCI+JiMyNTc3MzsmIzI1OTE4OyYjMjc0Njg7JiMyNjM1NDsmIzI0MTgyOyYjMjYzNTY7JiMyNjAzMjsmIzI1NzczOyYjMjU5MTg7JiMyNzQyNTsmIzI1OTY4OzwvdGV4dD48L2c+PCEtLWVudGl0eSA/Pz8/Pz8/Pz8/Pz8tLT48ZyBpZD0iZWxlbV8mIzI2NjgxOyYjMjU0NTQ7JiMyNzQ2ODsmIzI2MzU0OyYjMjE1MTc7JiMyMzM4MzsmIzI3MTY5OyYjMzE5NDY7JiMyNjU5NzsmIzM1ODEwOyYjMjc0Njg7JiMyNjM1NDsiPjxyZWN0IGZpbGw9IiNGMUYxRjEiIGhlaWdodD0iNDQuOTg0NCIgcng9IjIuNSIgcnk9IjIuNSIgc3R5bGU9InN0cm9rZTojMTgxODE4O3N0cm9rZS13aWR0aDowLjU7IiB3aWR0aD0iMjA4IiB4PSIyMzcyIiB5PSI2NTUuNSIvPjxyZWN0IGZpbGw9IiNGMUYxRjEiIGhlaWdodD0iMTAiIHN0eWxlPSJzdHJva2U6IzE4MTgxODtzdHJva2Utd2lkdGg6MC41OyIgd2lkdGg9IjE1IiB4PSIyNTYwIiB5PSI2NjAuNSIvPjxyZWN0IGZpbGw9IiNGMUYxRjEiIGhlaWdodD0iMiIgc3R5bGU9InN0cm9rZTojMTgxODE4O3N0cm9rZS13aWR0aDowLjU7IiB3aWR0aD0iNCIgeD0iMjU1OCIgeT0iNjYyLjUiLz48cmVjdCBmaWxsPSIjRjFGMUYxIiBoZWlnaHQ9IjIiIHN0eWxlPSJzdHJva2U6IzE4MTgxODtzdHJva2Utd2lkdGg6MC41OyIgd2lkdGg9IjQiIHg9IjI1NTgiIHk9IjY2Ni41Ii8+PHRleHQgZmlsbD0iIzAwMDAwMCIgZm9udC1mYW1pbHk9InNhbnMtc2VyaWYiIGZvbnQtc2l6ZT0iMTQiIGxlbmd0aEFkanVzdD0ic3BhY2luZyIgdGV4dExlbmd0aD0iMTY4IiB4PSIyMzg3IiB5PSI2ODguNzM0NCI+JiMyNjY4MTsmIzI1NDU0OyYjMjc0Njg7JiMyNjM1NDsmIzIxNTE3OyYjMjMzODM7JiMyNzE2OTsmIzMxOTQ2OyYjMjY1OTc7JiMzNTgxMDsmIzI3NDY4OyYjMjYzNTQ7PC90ZXh0PjwvZz48IS0tZW50aXR5ID8/Pz8/Pz8/Pz8/LS0+PGcgaWQ9ImVsZW1fJiMyNjU5NzsmIzM1ODEwOyYjMjUzNTE7JiMyMzQ1MDsmIzI3NDY4OyYjMjUxNjM7JiMzMDM0MDsmIzI1MTUyOyYjMjYzNzc7JiMyNzQ2ODsmIzI2MzU0OyI+PHJlY3QgZmlsbD0iI0YxRjFGMSIgaGVpZ2h0PSI0NC45ODQ0IiByeD0iMi41IiByeT0iMi41IiBzdHlsZT0ic3Ryb2tlOiMxODE4MTg7c3Ryb2tlLXdpZHRoOjAuNTsiIHdpZHRoPSIxOTQiIHg9IjI2MTUiIHk9IjY1NS41Ii8+PHJlY3QgZmlsbD0iI0YxRjFGMSIgaGVpZ2h0PSIxMCIgc3R5bGU9InN0cm9rZTojMTgxODE4O3N0cm9rZS13aWR0aDowLjU7IiB3aWR0aD0iMTUiIHg9IjI3ODkiIHk9IjY2MC41Ii8+PHJlY3QgZmlsbD0iI0YxRjFGMSIgaGVpZ2h0PSIyIiBzdHlsZT0ic3Ryb2tlOiMxODE4MTg7c3Ryb2tlLXdpZHRoOjAuNTsiIHdpZHRoPSI0IiB4PSIyNzg3IiB5PSI2NjIuNSIvPjxyZWN0IGZpbGw9IiNGMUYxRjEiIGhlaWdodD0iMiIgc3R5bGU9InN0cm9rZTojMTgxODE4O3N0cm9rZS13aWR0aDowLjU7IiB3aWR0aD0iNCIgeD0iMjc4NyIgeT0iNjY2LjUiLz48dGV4dCBmaWxsPSIjMDAwMDAwIiBmb250LWZhbWlseT0ic2Fucy1zZXJpZiIgZm9udC1zaXplPSIxNCIgbGVuZ3RoQWRqdXN0PSJzcGFjaW5nIiB0ZXh0TGVuZ3RoPSIxNTQiIHg9IjI2MzAiIHk9IjY4OC43MzQ0Ij4mIzI2NTk3OyYjMzU4MTA7JiMyNTM1MTsmIzIzNDUwOyYjMjc0Njg7JiMyNTE2MzsmIzMwMzQwOyYjMjUxNTI7JiMyNjM3NzsmIzI3NDY4OyYjMjYzNTQ7PC90ZXh0PjwvZz48IS0tZW50aXR5ID8/Pz8/Pz8/Pz8/Py0tPjxnIGlkPSJlbGVtXyYjMjY1OTc7JiMzNTgxMDsmIzI1MzUxOyYjMjM0NTA7JiMyNzQ2ODsmIzI1MTYzOyYjMjE1MTc7JiMzMDM0MDsmIzI1MTUyOyYjMjYzNzc7JiMyNzQ2ODsmIzI2MzU0OyI+PHJlY3QgZmlsbD0iI0YxRjFGMSIgaGVpZ2h0PSI0NC45ODQ0IiByeD0iMi41IiByeT0iMi41IiBzdHlsZT0ic3Ryb2tlOiMxODE4MTg7c3Ryb2tlLXdpZHRoOjAuNTsiIHdpZHRoPSIyMDgiIHg9IjI4NDQiIHk9IjY1NS41Ii8+PHJlY3QgZmlsbD0iI0YxRjFGMSIgaGVpZ2h0PSIxMCIgc3R5bGU9InN0cm9rZTojMTgxODE4O3N0cm9rZS13aWR0aDowLjU7IiB3aWR0aD0iMTUiIHg9IjMwMzIiIHk9IjY2MC41Ii8+PHJlY3QgZmlsbD0iI0YxRjFGMSIgaGVpZ2h0PSIyIiBzdHlsZT0ic3Ryb2tlOiMxODE4MTg7c3Ryb2tlLXdpZHRoOjAuNTsiIHdpZHRoPSI0IiB4PSIzMDMwIiB5PSI2NjIuNSIvPjxyZWN0IGZpbGw9IiNGMUYxRjEiIGhlaWdodD0iMiIgc3R5bGU9InN0cm9rZTojMTgxODE4O3N0cm9rZS13aWR0aDowLjU7IiB3aWR0aD0iNCIgeD0iMzAzMCIgeT0iNjY2LjUiLz48dGV4dCBmaWxsPSIjMDAwMDAwIiBmb250LWZhbWlseT0ic2Fucy1zZXJpZiIgZm9udC1zaXplPSIxNCIgbGVuZ3RoQWRqdXN0PSJzcGFjaW5nIiB0ZXh0TGVuZ3RoPSIxNjgiIHg9IjI4NTkiIHk9IjY4OC43MzQ0Ij4mIzI2NTk3OyYjMzU4MTA7JiMyNTM1MTsmIzIzNDUwOyYjMjc0Njg7JiMyNTE2MzsmIzIxNTE3OyYjMzAzNDA7JiMyNTE1MjsmIzI2Mzc3OyYjMjc0Njg7JiMyNjM1NDs8L3RleHQ+PC9nPjwhLS1lbnRpdHkgPz8/Pz8/Pz8/Pz8/LS0+PGcgaWQ9ImVsZW1fJiMyNjU5NzsmIzM1ODEwOyYjMjUzNTE7JiMyMzQ1MDsmIzI3NDY4OyYjMjYzNTQ7JiMyMTUxNzsmIzMwMzQwOyYjMjUxNTI7JiMyNjM3NzsmIzI3NDY4OyYjMjYzNTQ7Ij48cmVjdCBmaWxsPSIjRjFGMUYxIiBoZWlnaHQ9IjQ0Ljk4NDQiIHJ4PSIyLjUiIHJ5PSIyLjUiIHN0eWxlPSJzdHJva2U6IzE4MTgxODtzdHJva2Utd2lkdGg6MC41OyIgd2lkdGg9IjIwOCIgeD0iMzA4NyIgeT0iNjU1LjUiLz48cmVjdCBmaWxsPSIjRjFGMUYxIiBoZWlnaHQ9IjEwIiBzdHlsZT0ic3Ryb2tlOiMxODE4MTg7c3Ryb2tlLXdpZHRoOjAuNTsiIHdpZHRoPSIxNSIgeD0iMzI3NSIgeT0iNjYwLjUiLz48cmVjdCBmaWxsPSIjRjFGMUYxIiBoZWlnaHQ9IjIiIHN0eWxlPSJzdHJva2U6IzE4MTgxODtzdHJva2Utd2lkdGg6MC41OyIgd2lkdGg9IjQiIHg9IjMyNzMiIHk9IjY2Mi41Ii8+PHJlY3QgZmlsbD0iI0YxRjFGMSIgaGVpZ2h0PSIyIiBzdHlsZT0ic3Ryb2tlOiMxODE4MTg7c3Ryb2tlLXdpZHRoOjAuNTsiIHdpZHRoPSI0IiB4PSIzMjczIiB5PSI2NjYuNSIvPjx0ZXh0IGZpbGw9IiMwMDAwMDAiIGZvbnQtZmFtaWx5PSJzYW5zLXNlcmlmIiBmb250LXNpemU9IjE0IiBsZW5ndGhBZGp1c3Q9InNwYWNpbmciIHRleHRMZW5ndGg9IjE2OCIgeD0iMzEwMiIgeT0iNjg4LjczNDQiPiYjMjY1OTc7JiMzNTgxMDsmIzI1MzUxOyYjMjM0NTA7JiMyNzQ2ODsmIzI2MzU0OyYjMjE1MTc7JiMzMDM0MDsmIzI1MTUyOyYjMjYzNzc7JiMyNzQ2ODsmIzI2MzU0OzwvdGV4dD48L2c+PCEtLWVudGl0eSA/Pz8/LS0+PGcgaWQ9ImVsZW1fJiMyODE1NTsmIzIxMTUyOyYjMjk5OTI7JiMyNTE0MzsiPjxyZWN0IGZpbGw9IiNGMUYxRjEiIGhlaWdodD0iNDQuOTg0NCIgcng9IjIuNSIgcnk9IjIuNSIgc3R5bGU9InN0cm9rZTojMTgxODE4O3N0cm9rZS13aWR0aDowLjU7IiB3aWR0aD0iOTYiIHg9IjM0MDIiIHk9IjQwMC41Ii8+PHJlY3QgZmlsbD0iI0YxRjFGMSIgaGVpZ2h0PSIxMCIgc3R5bGU9InN0cm9rZTojMTgxODE4O3N0cm9rZS13aWR0aDowLjU7IiB3aWR0aD0iMTUiIHg9IjM0NzgiIHk9IjQwNS41Ii8+PHJlY3QgZmlsbD0iI0YxRjFGMSIgaGVpZ2h0PSIyIiBzdHlsZT0ic3Ryb2tlOiMxODE4MTg7c3Ryb2tlLXdpZHRoOjAuNTsiIHdpZHRoPSI0IiB4PSIzNDc2IiB5PSI0MDcuNSIvPjxyZWN0IGZpbGw9IiNGMUYxRjEiIGhlaWdodD0iMiIgc3R5bGU9InN0cm9rZTojMTgxODE4O3N0cm9rZS13aWR0aDowLjU7IiB3aWR0aD0iNCIgeD0iMzQ3NiIgeT0iNDExLjUiLz48dGV4dCBmaWxsPSIjMDAwMDAwIiBmb250LWZhbWlseT0ic2Fucy1zZXJpZiIgZm9udC1zaXplPSIxNCIgbGVuZ3RoQWRqdXN0PSJzcGFjaW5nIiB0ZXh0TGVuZ3RoPSI1NiIgeD0iMzQxNyIgeT0iNDMzLjczNDQiPiYjMjgxNTU7JiMyMTE1MjsmIzI5OTkyOyYjMjUxNDM7PC90ZXh0PjwvZz48IS0tZW50aXR5ID8/Pz8/Py0tPjxnIGlkPSJlbGVtXyYjMjY1OTc7JiMzNTgxMDsmIzI1MTUyOyYjMjYzNzc7JiMyOTk5MjsmIzI1MTQzOyI+PHJlY3QgZmlsbD0iI0YxRjFGMSIgaGVpZ2h0PSI0NC45ODQ0IiByeD0iMi41IiByeT0iMi41IiBzdHlsZT0ic3Ryb2tlOiMxODE4MTg7c3Ryb2tlLXdpZHRoOjAuNTsiIHdpZHRoPSIxMjQiIHg9IjM1MzMiIHk9IjQwMC41Ii8+PHJlY3QgZmlsbD0iI0YxRjFGMSIgaGVpZ2h0PSIxMCIgc3R5bGU9InN0cm9rZTojMTgxODE4O3N0cm9rZS13aWR0aDowLjU7IiB3aWR0aD0iMTUiIHg9IjM2MzciIHk9IjQwNS41Ii8+PHJlY3QgZmlsbD0iI0YxRjFGMSIgaGVpZ2h0PSIyIiBzdHlsZT0ic3Ryb2tlOiMxODE4MTg7c3Ryb2tlLXdpZHRoOjAuNTsiIHdpZHRoPSI0IiB4PSIzNjM1IiB5PSI0MDcuNSIvPjxyZWN0IGZpbGw9IiNGMUYxRjEiIGhlaWdodD0iMiIgc3R5bGU9InN0cm9rZTojMTgxODE4O3N0cm9rZS13aWR0aDowLjU7IiB3aWR0aD0iNCIgeD0iMzYzNSIgeT0iNDExLjUiLz48dGV4dCBmaWxsPSIjMDAwMDAwIiBmb250LWZhbWlseT0ic2Fucy1zZXJpZiIgZm9udC1zaXplPSIxNCIgbGVuZ3RoQWRqdXN0PSJzcGFjaW5nIiB0ZXh0TGVuZ3RoPSI4NCIgeD0iMzU0OCIgeT0iNDMzLjczNDQiPiYjMjY1OTc7JiMzNTgxMDsmIzI1MTUyOyYjMjYzNzc7JiMyOTk5MjsmIzI1MTQzOzwvdGV4dD48L2c+PCEtLWVudGl0eSA/Pz8/Pz8tLT48ZyBpZD0iZWxlbV8mIzMzNzE5OyYjMjQ0NzE7JiMyOTk5MjsmIzI1MTQzOyYjMjQ2MzU7JiMyNTk2ODsiPjxyZWN0IGZpbGw9IiNGMUYxRjEiIGhlaWdodD0iNDQuOTg0NCIgcng9IjIuNSIgcnk9IjIuNSIgc3R5bGU9InN0cm9rZTojMTgxODE4O3N0cm9rZS13aWR0aDowLjU7IiB3aWR0aD0iMTI0IiB4PSIzNjkyIiB5PSI0MDAuNSIvPjxyZWN0IGZpbGw9IiNGMUYxRjEiIGhlaWdodD0iMTAiIHN0eWxlPSJzdHJva2U6IzE4MTgxODtzdHJva2Utd2lkdGg6MC41OyIgd2lkdGg9IjE1IiB4PSIzNzk2IiB5PSI0MDUuNSIvPjxyZWN0IGZpbGw9IiNGMUYxRjEiIGhlaWdodD0iMiIgc3R5bGU9InN0cm9rZTojMTgxODE4O3N0cm9rZS13aWR0aDowLjU7IiB3aWR0aD0iNCIgeD0iMzc5NCIgeT0iNDA3LjUiLz48cmVjdCBmaWxsPSIjRjFGMUYxIiBoZWlnaHQ9IjIiIHN0eWxlPSJzdHJva2U6IzE4MTgxODtzdHJva2Utd2lkdGg6MC41OyIgd2lkdGg9IjQiIHg9IjM3OTQiIHk9IjQxMS41Ii8+PHRleHQgZmlsbD0iIzAwMDAwMCIgZm9udC1mYW1pbHk9InNhbnMtc2VyaWYiIGZvbnQtc2l6ZT0iMTQiIGxlbmd0aEFkanVzdD0ic3BhY2luZyIgdGV4dExlbmd0aD0iODQiIHg9IjM3MDciIHk9IjQzMy43MzQ0Ij4mIzMzNzE5OyYjMjQ0NzE7JiMyOTk5MjsmIzI1MTQzOyYjMjQ2MzU7JiMyNTk2ODs8L3RleHQ+PC9nPjwhLS1lbnRpdHkgPz8/Py0tPjxnIGlkPSJlbGVtXyYjMjEwMjQ7JiMzODUwMDsmIzI5OTkyOyYjMjUxNDM7Ij48cmVjdCBmaWxsPSIjRjFGMUYxIiBoZWlnaHQ9IjQ0Ljk4NDQiIHJ4PSIyLjUiIHJ5PSIyLjUiIHN0eWxlPSJzdHJva2U6IzE4MTgxODtzdHJva2Utd2lkdGg6MC41OyIgd2lkdGg9Ijk2IiB4PSIzODUxIiB5PSI0MDAuNSIvPjxyZWN0IGZpbGw9IiNGMUYxRjEiIGhlaWdodD0iMTAiIHN0eWxlPSJzdHJva2U6IzE4MTgxODtzdHJva2Utd2lkdGg6MC41OyIgd2lkdGg9IjE1IiB4PSIzOTI3IiB5PSI0MDUuNSIvPjxyZWN0IGZpbGw9IiNGMUYxRjEiIGhlaWdodD0iMiIgc3R5bGU9InN0cm9rZTojMTgxODE4O3N0cm9rZS13aWR0aDowLjU7IiB3aWR0aD0iNCIgeD0iMzkyNSIgeT0iNDA3LjUiLz48cmVjdCBmaWxsPSIjRjFGMUYxIiBoZWlnaHQ9IjIiIHN0eWxlPSJzdHJva2U6IzE4MTgxODtzdHJva2Utd2lkdGg6MC41OyIgd2lkdGg9IjQiIHg9IjM5MjUiIHk9IjQxMS41Ii8+PHRleHQgZmlsbD0iIzAwMDAwMCIgZm9udC1mYW1pbHk9InNhbnMtc2VyaWYiIGZvbnQtc2l6ZT0iMTQiIGxlbmd0aEFkanVzdD0ic3BhY2luZyIgdGV4dExlbmd0aD0iNTYiIHg9IjM4NjYiIHk9IjQzMy43MzQ0Ij4mIzIxMDI0OyYjMzg1MDA7JiMyOTk5MjsmIzI1MTQzOzwvdGV4dD48L2c+PCEtLWVudGl0eSA/Pz8/Pz8tLT48ZyBpZD0iZWxlbV8mIzI1MjA5OyYjMzczMjc7JiMyMTAyNDsmIzM4NTAwOyYjMjk5OTI7JiMyNTE0MzsiPjxyZWN0IGZpbGw9IiNGMUYxRjEiIGhlaWdodD0iNDQuOTg0NCIgcng9IjIuNSIgcnk9IjIuNSIgc3R5bGU9InN0cm9rZTojMTgxODE4O3N0cm9rZS13aWR0aDowLjU7IiB3aWR0aD0iMTI0IiB4PSIzMzkxIiB5PSI1MDUuNSIvPjxyZWN0IGZpbGw9IiNGMUYxRjEiIGhlaWdodD0iMTAiIHN0eWxlPSJzdHJva2U6IzE4MTgxODtzdHJva2Utd2lkdGg6MC41OyIgd2lkdGg9IjE1IiB4PSIzNDk1IiB5PSI1MTAuNSIvPjxyZWN0IGZpbGw9IiNGMUYxRjEiIGhlaWdodD0iMiIgc3R5bGU9InN0cm9rZTojMTgxODE4O3N0cm9rZS13aWR0aDowLjU7IiB3aWR0aD0iNCIgeD0iMzQ5MyIgeT0iNTEyLjUiLz48cmVjdCBmaWxsPSIjRjFGMUYxIiBoZWlnaHQ9IjIiIHN0eWxlPSJzdHJva2U6IzE4MTgxODtzdHJva2Utd2lkdGg6MC41OyIgd2lkdGg9IjQiIHg9IjM0OTMiIHk9IjUxNi41Ii8+PHRleHQgZmlsbD0iIzAwMDAwMCIgZm9udC1mYW1pbHk9InNhbnMtc2VyaWYiIGZvbnQtc2l6ZT0iMTQiIGxlbmd0aEFkanVzdD0ic3BhY2luZyIgdGV4dExlbmd0aD0iODQiIHg9IjM0MDYiIHk9IjUzOC43MzQ0Ij4mIzI1MjA5OyYjMzczMjc7JiMyMTAyNDsmIzM4NTAwOyYjMjk5OTI7JiMyNTE0Mzs8L3RleHQ+PC9nPjwhLS1lbnRpdHkgPz8/Py0tPjxnIGlkPSJlbGVtXyYjMjY1OTc7JiMzNTgxMDsmIzI5OTkyOyYjMjUxNDM7Ij48cmVjdCBmaWxsPSIjRjFGMUYxIiBoZWlnaHQ9IjQ0Ljk4NDQiIHJ4PSIyLjUiIHJ5PSIyLjUiIHN0eWxlPSJzdHJva2U6IzE4MTgxODtzdHJva2Utd2lkdGg6MC41OyIgd2lkdGg9Ijk2IiB4PSIzNTUwIiB5PSI1MDUuNSIvPjxyZWN0IGZpbGw9IiNGMUYxRjEiIGhlaWdodD0iMTAiIHN0eWxlPSJzdHJva2U6IzE4MTgxODtzdHJva2Utd2lkdGg6MC41OyIgd2lkdGg9IjE1IiB4PSIzNjI2IiB5PSI1MTAuNSIvPjxyZWN0IGZpbGw9IiNGMUYxRjEiIGhlaWdodD0iMiIgc3R5bGU9InN0cm9rZTojMTgxODE4O3N0cm9rZS13aWR0aDowLjU7IiB3aWR0aD0iNCIgeD0iMzYyNCIgeT0iNTEyLjUiLz48cmVjdCBmaWxsPSIjRjFGMUYxIiBoZWlnaHQ9IjIiIHN0eWxlPSJzdHJva2U6IzE4MTgxODtzdHJva2Utd2lkdGg6MC41OyIgd2lkdGg9IjQiIHg9IjM2MjQiIHk9IjUxNi41Ii8+PHRleHQgZmlsbD0iIzAwMDAwMCIgZm9udC1mYW1pbHk9InNhbnMtc2VyaWYiIGZvbnQtc2l6ZT0iMTQiIGxlbmd0aEFkanVzdD0ic3BhY2luZyIgdGV4dExlbmd0aD0iNTYiIHg9IjM1NjUiIHk9IjUzOC43MzQ0Ij4mIzI2NTk3OyYjMzU4MTA7JiMyOTk5MjsmIzI1MTQzOzwvdGV4dD48L2c+PCEtLWVudGl0eSA/Pz8/Pz8/Pz8/LS0+PGcgaWQ9ImVsZW1fJiMyNjY4MTsmIzI1NDU0OyYjMjQ2MTU7JiMyMTAzNTsmIzMzNzE5OyYjMjE0NjI7JiMyOTk5MjsmIzI1MTQzOyYjMjAwMTA7JiMyNTk2ODsiPjxyZWN0IGZpbGw9IiNGMUYxRjEiIGhlaWdodD0iNDQuOTg0NCIgcng9IjIuNSIgcnk9IjIuNSIgc3R5bGU9InN0cm9rZTojMTgxODE4O3N0cm9rZS13aWR0aDowLjU7IiB3aWR0aD0iMTgwIiB4PSIzNjgxIiB5PSI1MDUuNSIvPjxyZWN0IGZpbGw9IiNGMUYxRjEiIGhlaWdodD0iMTAiIHN0eWxlPSJzdHJva2U6IzE4MTgxODtzdHJva2Utd2lkdGg6MC41OyIgd2lkdGg9IjE1IiB4PSIzODQxIiB5PSI1MTAuNSIvPjxyZWN0IGZpbGw9IiNGMUYxRjEiIGhlaWdodD0iMiIgc3R5bGU9InN0cm9rZTojMTgxODE4O3N0cm9rZS13aWR0aDowLjU7IiB3aWR0aD0iNCIgeD0iMzgzOSIgeT0iNTEyLjUiLz48cmVjdCBmaWxsPSIjRjFGMUYxIiBoZWlnaHQ9IjIiIHN0eWxlPSJzdHJva2U6IzE4MTgxODtzdHJva2Utd2lkdGg6MC41OyIgd2lkdGg9IjQiIHg9IjM4MzkiIHk9IjUxNi41Ii8+PHRleHQgZmlsbD0iIzAwMDAwMCIgZm9udC1mYW1pbHk9InNhbnMtc2VyaWYiIGZvbnQtc2l6ZT0iMTQiIGxlbmd0aEFkanVzdD0ic3BhY2luZyIgdGV4dExlbmd0aD0iMTQwIiB4PSIzNjk2IiB5PSI1MzguNzM0NCI+JiMyNjY4MTsmIzI1NDU0OyYjMjQ2MTU7JiMyMTAzNTsmIzMzNzE5OyYjMjE0NjI7JiMyOTk5MjsmIzI1MTQzOyYjMjAwMTA7JiMyNTk2ODs8L3RleHQ+PC9nPjwhLS1lbnRpdHkgPz8/Py0tPjxnIGlkPSJlbGVtXyYjMjk5OTI7JiMyNTE0MzsmIzI3ODgwOyYjMjA4NzY7Ij48cmVjdCBmaWxsPSIjRjFGMUYxIiBoZWlnaHQ9IjQ0Ljk4NDQiIHJ4PSIyLjUiIHJ5PSIyLjUiIHN0eWxlPSJzdHJva2U6IzE4MTgxODtzdHJva2Utd2lkdGg6MC41OyIgd2lkdGg9Ijk2IiB4PSIzODk2IiB5PSI1MDUuNSIvPjxyZWN0IGZpbGw9IiNGMUYxRjEiIGhlaWdodD0iMTAiIHN0eWxlPSJzdHJva2U6IzE4MTgxODtzdHJva2Utd2lkdGg6MC41OyIgd2lkdGg9IjE1IiB4PSIzOTcyIiB5PSI1MTAuNSIvPjxyZWN0IGZpbGw9IiNGMUYxRjEiIGhlaWdodD0iMiIgc3R5bGU9InN0cm9rZTojMTgxODE4O3N0cm9rZS13aWR0aDowLjU7IiB3aWR0aD0iNCIgeD0iMzk3MCIgeT0iNTEyLjUiLz48cmVjdCBmaWxsPSIjRjFGMUYxIiBoZWlnaHQ9IjIiIHN0eWxlPSJzdHJva2U6IzE4MTgxODtzdHJva2Utd2lkdGg6MC41OyIgd2lkdGg9IjQiIHg9IjM5NzAiIHk9IjUxNi41Ii8+PHRleHQgZmlsbD0iIzAwMDAwMCIgZm9udC1mYW1pbHk9InNhbnMtc2VyaWYiIGZvbnQtc2l6ZT0iMTQiIGxlbmd0aEFkanVzdD0ic3BhY2luZyIgdGV4dExlbmd0aD0iNTYiIHg9IjM5MTEiIHk9IjUzOC43MzQ0Ij4mIzI5OTkyOyYjMjUxNDM7JiMyNzg4MDsmIzIwODc2OzwvdGV4dD48L2c+PCEtLWVudGl0eSA/Pz8/LS0+PGcgaWQ9ImVsZW1fJiMyOTk5MjsmIzI1MTQzOyYjMzAzMzE7JiMyNDQwNTsiPjxyZWN0IGZpbGw9IiNGMUYxRjEiIGhlaWdodD0iNDQuOTg0NCIgcng9IjIuNSIgcnk9IjIuNSIgc3R5bGU9InN0cm9rZTojMTgxODE4O3N0cm9rZS13aWR0aDowLjU7IiB3aWR0aD0iOTYiIHg9IjM0MDUiIHk9IjY1NS41Ii8+PHJlY3QgZmlsbD0iI0YxRjFGMSIgaGVpZ2h0PSIxMCIgc3R5bGU9InN0cm9rZTojMTgxODE4O3N0cm9rZS13aWR0aDowLjU7IiB3aWR0aD0iMTUiIHg9IjM0ODEiIHk9IjY2MC41Ii8+PHJlY3QgZmlsbD0iI0YxRjFGMSIgaGVpZ2h0PSIyIiBzdHlsZT0ic3Ryb2tlOiMxODE4MTg7c3Ryb2tlLXdpZHRoOjAuNTsiIHdpZHRoPSI0IiB4PSIzNDc5IiB5PSI2NjIuNSIvPjxyZWN0IGZpbGw9IiNGMUYxRjEiIGhlaWdodD0iMiIgc3R5bGU9InN0cm9rZTojMTgxODE4O3N0cm9rZS13aWR0aDowLjU7IiB3aWR0aD0iNCIgeD0iMzQ3OSIgeT0iNjY2LjUiLz48dGV4dCBmaWxsPSIjMDAwMDAwIiBmb250LWZhbWlseT0ic2Fucy1zZXJpZiIgZm9udC1zaXplPSIxNCIgbGVuZ3RoQWRqdXN0PSJzcGFjaW5nIiB0ZXh0TGVuZ3RoPSI1NiIgeD0iMzQyMCIgeT0iNjg4LjczNDQiPiYjMjk5OTI7JiMyNTE0MzsmIzMwMzMxOyYjMjQ0MDU7PC90ZXh0PjwvZz48IS0tZW50aXR5ID8/Pz8tLT48ZyBpZD0iZWxlbV8mIzM2ODY0OyYjMjA5ODY7JiMzMDMzMTsmIzI0NDA1OyI+PHJlY3QgZmlsbD0iI0YxRjFGMSIgaGVpZ2h0PSI0NC45ODQ0IiByeD0iMi41IiByeT0iMi41IiBzdHlsZT0ic3Ryb2tlOiMxODE4MTg7c3Ryb2tlLXdpZHRoOjAuNTsiIHdpZHRoPSI5NiIgeD0iMzUzNiIgeT0iNjU1LjUiLz48cmVjdCBmaWxsPSIjRjFGMUYxIiBoZWlnaHQ9IjEwIiBzdHlsZT0ic3Ryb2tlOiMxODE4MTg7c3Ryb2tlLXdpZHRoOjAuNTsiIHdpZHRoPSIxNSIgeD0iMzYxMiIgeT0iNjYwLjUiLz48cmVjdCBmaWxsPSIjRjFGMUYxIiBoZWlnaHQ9IjIiIHN0eWxlPSJzdHJva2U6IzE4MTgxODtzdHJva2Utd2lkdGg6MC41OyIgd2lkdGg9IjQiIHg9IjM2MTAiIHk9IjY2Mi41Ii8+PHJlY3QgZmlsbD0iI0YxRjFGMSIgaGVpZ2h0PSIyIiBzdHlsZT0ic3Ryb2tlOiMxODE4MTg7c3Ryb2tlLXdpZHRoOjAuNTsiIHdpZHRoPSI0IiB4PSIzNjEwIiB5PSI2NjYuNSIvPjx0ZXh0IGZpbGw9IiMwMDAwMDAiIGZvbnQtZmFtaWx5PSJzYW5zLXNlcmlmIiBmb250LXNpemU9IjE0IiBsZW5ndGhBZGp1c3Q9InNwYWNpbmciIHRleHRMZW5ndGg9IjU2IiB4PSIzNTUxIiB5PSI2ODguNzM0NCI+JiMzNjg2NDsmIzIwOTg2OyYjMzAzMzE7JiMyNDQwNTs8L3RleHQ+PC9nPjwhLS1lbnRpdHkgPz8/Py0tPjxnIGlkPSJlbGVtXyYjMjYzNTY7JiMyNjAzMjsmIzI5OTkyOyYjMjUxNDM7Ij48cmVjdCBmaWxsPSIjRjFGMUYxIiBoZWlnaHQ9IjQ0Ljk4NDQiIHJ4PSIyLjUiIHJ5PSIyLjUiIHN0eWxlPSJzdHJva2U6IzE4MTgxODtzdHJva2Utd2lkdGg6MC41OyIgd2lkdGg9Ijk2IiB4PSIzNjY3IiB5PSI2NTUuNSIvPjxyZWN0IGZpbGw9IiNGMUYxRjEiIGhlaWdodD0iMTAiIHN0eWxlPSJzdHJva2U6IzE4MTgxODtzdHJva2Utd2lkdGg6MC41OyIgd2lkdGg9IjE1IiB4PSIzNzQzIiB5PSI2NjAuNSIvPjxyZWN0IGZpbGw9IiNGMUYxRjEiIGhlaWdodD0iMiIgc3R5bGU9InN0cm9rZTojMTgxODE4O3N0cm9rZS13aWR0aDowLjU7IiB3aWR0aD0iNCIgeD0iMzc0MSIgeT0iNjYyLjUiLz48cmVjdCBmaWxsPSIjRjFGMUYxIiBoZWlnaHQ9IjIiIHN0eWxlPSJzdHJva2U6IzE4MTgxODtzdHJva2Utd2lkdGg6MC41OyIgd2lkdGg9IjQiIHg9IjM3NDEiIHk9IjY2Ni41Ii8+PHRleHQgZmlsbD0iIzAwMDAwMCIgZm9udC1mYW1pbHk9InNhbnMtc2VyaWYiIGZvbnQtc2l6ZT0iMTQiIGxlbmd0aEFkanVzdD0ic3BhY2luZyIgdGV4dExlbmd0aD0iNTYiIHg9IjM2ODIiIHk9IjY4OC43MzQ0Ij4mIzI2MzU2OyYjMjYwMzI7JiMyOTk5MjsmIzI1MTQzOzwvdGV4dD48L2c+PCEtLWVudGl0eSA/Pz8/LS0+PGcgaWQ9ImVsZW1fJiMyODE1NTsmIzIxMTUyOyYjMzU3ODA7JiMzNTc3MDsiPjxyZWN0IGZpbGw9IiNGMUYxRjEiIGhlaWdodD0iNDQuOTg0NCIgcng9IjIuNSIgcnk9IjIuNSIgc3R5bGU9InN0cm9rZTojMTgxODE4O3N0cm9rZS13aWR0aDowLjU7IiB3aWR0aD0iOTYiIHg9IjEwMiIgeT0iNjU1LjUiLz48cmVjdCBmaWxsPSIjRjFGMUYxIiBoZWlnaHQ9IjEwIiBzdHlsZT0ic3Ryb2tlOiMxODE4MTg7c3Ryb2tlLXdpZHRoOjAuNTsiIHdpZHRoPSIxNSIgeD0iMTc4IiB5PSI2NjAuNSIvPjxyZWN0IGZpbGw9IiNGMUYxRjEiIGhlaWdodD0iMiIgc3R5bGU9InN0cm9rZTojMTgxODE4O3N0cm9rZS13aWR0aDowLjU7IiB3aWR0aD0iNCIgeD0iMTc2IiB5PSI2NjIuNSIvPjxyZWN0IGZpbGw9IiNGMUYxRjEiIGhlaWdodD0iMiIgc3R5bGU9InN0cm9rZTojMTgxODE4O3N0cm9rZS13aWR0aDowLjU7IiB3aWR0aD0iNCIgeD0iMTc2IiB5PSI2NjYuNSIvPjx0ZXh0IGZpbGw9IiMwMDAwMDAiIGZvbnQtZmFtaWx5PSJzYW5zLXNlcmlmIiBmb250LXNpemU9IjE0IiBsZW5ndGhBZGp1c3Q9InNwYWNpbmciIHRleHRMZW5ndGg9IjU2IiB4PSIxMTciIHk9IjY4OC43MzQ0Ij4mIzI4MTU1OyYjMjExNTI7JiMzNTc4MDsmIzM1NzcwOzwvdGV4dD48L2c+PCEtLWVudGl0eSA/Pz8/Pz8tLT48ZyBpZD0iZWxlbV8mIzI2NTk3OyYjMzU4MTA7JiMyNTE1MjsmIzI2Mzc3OyYjMzU3ODA7JiMzNTc3MDsiPjxyZWN0IGZpbGw9IiNGMUYxRjEiIGhlaWdodD0iNDQuOTg0NCIgcng9IjIuNSIgcnk9IjIuNSIgc3R5bGU9InN0cm9rZTojMTgxODE4O3N0cm9rZS13aWR0aDowLjU7IiB3aWR0aD0iMTI0IiB4PSIyMzMiIHk9IjY1NS41Ii8+PHJlY3QgZmlsbD0iI0YxRjFGMSIgaGVpZ2h0PSIxMCIgc3R5bGU9InN0cm9rZTojMTgxODE4O3N0cm9rZS13aWR0aDowLjU7IiB3aWR0aD0iMTUiIHg9IjMzNyIgeT0iNjYwLjUiLz48cmVjdCBmaWxsPSIjRjFGMUYxIiBoZWlnaHQ9IjIiIHN0eWxlPSJzdHJva2U6IzE4MTgxODtzdHJva2Utd2lkdGg6MC41OyIgd2lkdGg9IjQiIHg9IjMzNSIgeT0iNjYyLjUiLz48cmVjdCBmaWxsPSIjRjFGMUYxIiBoZWlnaHQ9IjIiIHN0eWxlPSJzdHJva2U6IzE4MTgxODtzdHJva2Utd2lkdGg6MC41OyIgd2lkdGg9IjQiIHg9IjMzNSIgeT0iNjY2LjUiLz48dGV4dCBmaWxsPSIjMDAwMDAwIiBmb250LWZhbWlseT0ic2Fucy1zZXJpZiIgZm9udC1zaXplPSIxNCIgbGVuZ3RoQWRqdXN0PSJzcGFjaW5nIiB0ZXh0TGVuZ3RoPSI4NCIgeD0iMjQ4IiB5PSI2ODguNzM0NCI+JiMyNjU5NzsmIzM1ODEwOyYjMjUxNTI7JiMyNjM3NzsmIzM1NzgwOyYjMzU3NzA7PC90ZXh0PjwvZz48IS0tZW50aXR5ID8/Pz8tLT48ZyBpZD0iZWxlbV8mIzIxMDI0OyYjMzg1MDA7JiMzNTc4MDsmIzM1NzcwOyI+PHJlY3QgZmlsbD0iI0YxRjFGMSIgaGVpZ2h0PSI0NC45ODQ0IiByeD0iMi41IiByeT0iMi41IiBzdHlsZT0ic3Ryb2tlOiMxODE4MTg7c3Ryb2tlLXdpZHRoOjAuNTsiIHdpZHRoPSI5NiIgeD0iMzkyIiB5PSI2NTUuNSIvPjxyZWN0IGZpbGw9IiNGMUYxRjEiIGhlaWdodD0iMTAiIHN0eWxlPSJzdHJva2U6IzE4MTgxODtzdHJva2Utd2lkdGg6MC41OyIgd2lkdGg9IjE1IiB4PSI0NjgiIHk9IjY2MC41Ii8+PHJlY3QgZmlsbD0iI0YxRjFGMSIgaGVpZ2h0PSIyIiBzdHlsZT0ic3Ryb2tlOiMxODE4MTg7c3Ryb2tlLXdpZHRoOjAuNTsiIHdpZHRoPSI0IiB4PSI0NjYiIHk9IjY2Mi41Ii8+PHJlY3QgZmlsbD0iI0YxRjFGMSIgaGVpZ2h0PSIyIiBzdHlsZT0ic3Ryb2tlOiMxODE4MTg7c3Ryb2tlLXdpZHRoOjAuNTsiIHdpZHRoPSI0IiB4PSI0NjYiIHk9IjY2Ni41Ii8+PHRleHQgZmlsbD0iIzAwMDAwMCIgZm9udC1mYW1pbHk9InNhbnMtc2VyaWYiIGZvbnQtc2l6ZT0iMTQiIGxlbmd0aEFkanVzdD0ic3BhY2luZyIgdGV4dExlbmd0aD0iNTYiIHg9IjQwNyIgeT0iNjg4LjczNDQiPiYjMjEwMjQ7JiMzODUwMDsmIzM1NzgwOyYjMzU3NzA7PC90ZXh0PjwvZz48IS0tZW50aXR5ID8/Pz8/Py0tPjxnIGlkPSJlbGVtXyYjMjUyMDk7JiMzNzMyNzsmIzIxMDI0OyYjMzg1MDA7JiMzNTc4MDsmIzM1NzcwOyI+PHJlY3QgZmlsbD0iI0YxRjFGMSIgaGVpZ2h0PSI0NC45ODQ0IiByeD0iMi41IiByeT0iMi41IiBzdHlsZT0ic3Ryb2tlOiMxODE4MTg7c3Ryb2tlLXdpZHRoOjAuNTsiIHdpZHRoPSIxMjQiIHg9IjY2IiB5PSI3NjAuNSIvPjxyZWN0IGZpbGw9IiNGMUYxRjEiIGhlaWdodD0iMTAiIHN0eWxlPSJzdHJva2U6IzE4MTgxODtzdHJva2Utd2lkdGg6MC41OyIgd2lkdGg9IjE1IiB4PSIxNzAiIHk9Ijc2NS41Ii8+PHJlY3QgZmlsbD0iI0YxRjFGMSIgaGVpZ2h0PSIyIiBzdHlsZT0ic3Ryb2tlOiMxODE4MTg7c3Ryb2tlLXdpZHRoOjAuNTsiIHdpZHRoPSI0IiB4PSIxNjgiIHk9Ijc2Ny41Ii8+PHJlY3QgZmlsbD0iI0YxRjFGMSIgaGVpZ2h0PSIyIiBzdHlsZT0ic3Ryb2tlOiMxODE4MTg7c3Ryb2tlLXdpZHRoOjAuNTsiIHdpZHRoPSI0IiB4PSIxNjgiIHk9Ijc3MS41Ii8+PHRleHQgZmlsbD0iIzAwMDAwMCIgZm9udC1mYW1pbHk9InNhbnMtc2VyaWYiIGZvbnQtc2l6ZT0iMTQiIGxlbmd0aEFkanVzdD0ic3BhY2luZyIgdGV4dExlbmd0aD0iODQiIHg9IjgxIiB5PSI3OTMuNzM0NCI+JiMyNTIwOTsmIzM3MzI3OyYjMjEwMjQ7JiMzODUwMDsmIzM1NzgwOyYjMzU3NzA7PC90ZXh0PjwvZz48IS0tZW50aXR5ID8/Pz8/Pz8/Pz8tLT48ZyBpZD0iZWxlbV8mIzI2NTk3OyYjMzU4MTA7JiMyNTM1MTsmIzIzNDUwOyYjMjc0Njg7JiMyNjM1NDsmIzE5OTc5OyYjMzAzNDA7JiMzNTc4MDsmIzM1NzcwOyI+PHJlY3QgZmlsbD0iI0YxRjFGMSIgaGVpZ2h0PSI0NC45ODQ0IiByeD0iMi41IiByeT0iMi41IiBzdHlsZT0ic3Ryb2tlOiMxODE4MTg7c3Ryb2tlLXdpZHRoOjAuNTsiIHdpZHRoPSIxODAiIHg9IjIyNSIgeT0iNzYwLjUiLz48cmVjdCBmaWxsPSIjRjFGMUYxIiBoZWlnaHQ9IjEwIiBzdHlsZT0ic3Ryb2tlOiMxODE4MTg7c3Ryb2tlLXdpZHRoOjAuNTsiIHdpZHRoPSIxNSIgeD0iMzg1IiB5PSI3NjUuNSIvPjxyZWN0IGZpbGw9IiNGMUYxRjEiIGhlaWdodD0iMiIgc3R5bGU9InN0cm9rZTojMTgxODE4O3N0cm9rZS13aWR0aDowLjU7IiB3aWR0aD0iNCIgeD0iMzgzIiB5PSI3NjcuNSIvPjxyZWN0IGZpbGw9IiNGMUYxRjEiIGhlaWdodD0iMiIgc3R5bGU9InN0cm9rZTojMTgxODE4O3N0cm9rZS13aWR0aDowLjU7IiB3aWR0aD0iNCIgeD0iMzgzIiB5PSI3NzEuNSIvPjx0ZXh0IGZpbGw9IiMwMDAwMDAiIGZvbnQtZmFtaWx5PSJzYW5zLXNlcmlmIiBmb250LXNpemU9IjE0IiBsZW5ndGhBZGp1c3Q9InNwYWNpbmciIHRleHRMZW5ndGg9IjE0MCIgeD0iMjQwIiB5PSI3OTMuNzM0NCI+JiMyNjU5NzsmIzM1ODEwOyYjMjUzNTE7JiMyMzQ1MDsmIzI3NDY4OyYjMjYzNTQ7JiMxOTk3OTsmIzMwMzQwOyYjMzU3ODA7JiMzNTc3MDs8L3RleHQ+PC9nPjwhLS1lbnRpdHkgPz8/Pz8/Pz8/Py0tPjxnIGlkPSJlbGVtXyYjMjY1OTc7JiMzNTgxMDsmIzI1MzUxOyYjMjM0NTA7JiMyNzQ2ODsmIzIxMzMzOyYjMTk5Nzk7JiMzMDM0MDsmIzM1NzgwOyYjMzU3NzA7Ij48cmVjdCBmaWxsPSIjRjFGMUYxIiBoZWlnaHQ9IjQ0Ljk4NDQiIHJ4PSIyLjUiIHJ5PSIyLjUiIHN0eWxlPSJzdHJva2U6IzE4MTgxODtzdHJva2Utd2lkdGg6MC41OyIgd2lkdGg9IjE4MCIgeD0iNDQwIiB5PSI3NjAuNSIvPjxyZWN0IGZpbGw9IiNGMUYxRjEiIGhlaWdodD0iMTAiIHN0eWxlPSJzdHJva2U6IzE4MTgxODtzdHJva2Utd2lkdGg6MC41OyIgd2lkdGg9IjE1IiB4PSI2MDAiIHk9Ijc2NS41Ii8+PHJlY3QgZmlsbD0iI0YxRjFGMSIgaGVpZ2h0PSIyIiBzdHlsZT0ic3Ryb2tlOiMxODE4MTg7c3Ryb2tlLXdpZHRoOjAuNTsiIHdpZHRoPSI0IiB4PSI1OTgiIHk9Ijc2Ny41Ii8+PHJlY3QgZmlsbD0iI0YxRjFGMSIgaGVpZ2h0PSIyIiBzdHlsZT0ic3Ryb2tlOiMxODE4MTg7c3Ryb2tlLXdpZHRoOjAuNTsiIHdpZHRoPSI0IiB4PSI1OTgiIHk9Ijc3MS41Ii8+PHRleHQgZmlsbD0iIzAwMDAwMCIgZm9udC1mYW1pbHk9InNhbnMtc2VyaWYiIGZvbnQtc2l6ZT0iMTQiIGxlbmd0aEFkanVzdD0ic3BhY2luZyIgdGV4dExlbmd0aD0iMTQwIiB4PSI0NTUiIHk9Ijc5My43MzQ0Ij4mIzI2NTk3OyYjMzU4MTA7JiMyNTM1MTsmIzIzNDUwOyYjMjc0Njg7JiMyMTMzMzsmIzE5OTc5OyYjMzAzNDA7JiMzNTc4MDsmIzM1NzcwOzwvdGV4dD48L2c+PCEtLWVudGl0eSA/Pz8/LS0+PGcgaWQ9ImVsZW1fJiMyNjM1NjsmIzI2MDMyOyYjMzU3ODA7JiMzNTc3MDsiPjxyZWN0IGZpbGw9IiNGMUYxRjEiIGhlaWdodD0iNDQuOTg0NCIgcng9IjIuNSIgcnk9IjIuNSIgc3R5bGU9InN0cm9rZTojMTgxODE4O3N0cm9rZS13aWR0aDowLjU7IiB3aWR0aD0iOTYiIHg9IjgwIiB5PSI4NjUuNSIvPjxyZWN0IGZpbGw9IiNGMUYxRjEiIGhlaWdodD0iMTAiIHN0eWxlPSJzdHJva2U6IzE4MTgxODtzdHJva2Utd2lkdGg6MC41OyIgd2lkdGg9IjE1IiB4PSIxNTYiIHk9Ijg3MC41Ii8+PHJlY3QgZmlsbD0iI0YxRjFGMSIgaGVpZ2h0PSIyIiBzdHlsZT0ic3Ryb2tlOiMxODE4MTg7c3Ryb2tlLXdpZHRoOjAuNTsiIHdpZHRoPSI0IiB4PSIxNTQiIHk9Ijg3Mi41Ii8+PHJlY3QgZmlsbD0iI0YxRjFGMSIgaGVpZ2h0PSIyIiBzdHlsZT0ic3Ryb2tlOiMxODE4MTg7c3Ryb2tlLXdpZHRoOjAuNTsiIHdpZHRoPSI0IiB4PSIxNTQiIHk9Ijg3Ni41Ii8+PHRleHQgZmlsbD0iIzAwMDAwMCIgZm9udC1mYW1pbHk9InNhbnMtc2VyaWYiIGZvbnQtc2l6ZT0iMTQiIGxlbmd0aEFkanVzdD0ic3BhY2luZyIgdGV4dExlbmd0aD0iNTYiIHg9Ijk1IiB5PSI4OTguNzM0NCI+JiMyNjM1NjsmIzI2MDMyOyYjMzU3ODA7JiMzNTc3MDs8L3RleHQ+PC9nPjwhLS1lbnRpdHkgdXNlci0tPjxnIGlkPSJlbGVtX3VzZXIiPjxlbGxpcHNlIGN4PSI2ODYiIGN5PSIxNCIgZmlsbD0iI0YxRjFGMSIgcng9IjgiIHJ5PSI4IiBzdHlsZT0ic3Ryb2tlOiMxODE4MTg7c3Ryb2tlLXdpZHRoOjAuNTsiLz48cGF0aCBkPSJNNjg2LDIyIEw2ODYsNDkgTTY3MywzMCBMNjk5LDMwIE02ODYsNDkgTDY3Myw2NCBNNjg2LDQ5IEw2OTksNjQgIiBmaWxsPSJub25lIiBzdHlsZT0ic3Ryb2tlOiMxODE4MTg7c3Ryb2tlLXdpZHRoOjAuNTsiLz48dGV4dCBmaWxsPSIjMDAwMDAwIiBmb250LWZhbWlseT0ic2Fucy1zZXJpZiIgZm9udC1zaXplPSIxNCIgbGVuZ3RoQWRqdXN0PSJzcGFjaW5nIiB0ZXh0TGVuZ3RoPSI3NyIgeD0iNjQ3LjUiIHk9Ijc4LjczNDQiPiYjMjk5OTI7JiMyNTE0MzsvJiMzMTY0OTsmIzI5NzAyOyYjMjE1OTI7PC90ZXh0PjwvZz48IS0tbGluayB1c2VyIHRvID8/Pz8tLT48ZyBpZD0ibGlua191c2VyXyYjMjQwMzc7JiMyMTMzMzsmIzMxNjQ5OyYjMjk3MDI7Ij48cGF0aCBkPSJNNjQ3LjI2LDQ0LjMxIEM1MjIuMzgsNDUuNjcgMTM2LjA3LDUyLjc2IDk0LDg4LjUgQzkwLjY4NzUsOTEuMzEzOCA4Ny44OTg2LDk0LjU5NzIgODUuNTU1MSw5OC4xOTUzIEM4NC4zODMzLDk5Ljk5NDMgODMuMzIyOSwxMDEuODcyMSA4Mi4zNjQsMTAzLjgwOTEgQzgyLjMwNDEsMTAzLjkzMDEgODIuMjQ0NSwxMDQuMDUxNCA4Mi4xODU0LDEwNC4xNzMgIiBmaWxsPSJub25lIiBpZD0idXNlci10by0mIzI0MDM3OyYjMjEzMzM7JiMzMTY0OTsmIzI5NzAyOyIgc3R5bGU9InN0cm9rZTojMTgxODE4O3N0cm9rZS13aWR0aDoxLjA7Ii8+PHBvbHlnb24gZmlsbD0iIzE4MTgxOCIgcG9pbnRzPSI4Mi4xODU0LDEwNC4xNzMsODkuNzIwMyw5Ny44MzA3LDg0LjM3MzMsOTkuNjc3MSw4Mi41MjY5LDk0LjMzLDgyLjE4NTQsMTA0LjE3MyIgc3R5bGU9InN0cm9rZTojMTgxODE4O3N0cm9rZS13aWR0aDoxLjA7Ii8+PC9nPjwhLS1saW5rIHVzZXIgdG8gPz8/Py0tPjxnIGlkPSJsaW5rX3VzZXJfJiMyNzQ2ODsmIzIxMzMzOyYjMzE2NDk7JiMyOTcwMjsiPjxwYXRoIGQ9Ik02ODYsODAuNTcgQzY4Niw4NC45NjEzIDY4Niw4OS41NTY0IDY4Niw5NC4yNDE3IEM2ODYsOTYuNTg0MyA2ODYsOTguOTQ5NSA2ODYsMTAxLjMyMyBDNjg2LDEwMS45MTYzIDY4NiwxMDIuNTEwMiA2ODYsMTAzLjEwNDQgQzY4NiwxMDMuNDAxNSA2ODYsMTAzLjY5ODcgNjg2LDEwMy45OTU5IEM2ODYsMTA0LjE0NDUgNjg2LDEwNC4yOTMxIDY4NiwxMDQuNDQxNyAiIGZpbGw9Im5vbmUiIGlkPSJ1c2VyLXRvLSYjMjc0Njg7JiMyMTMzMzsmIzMxNjQ5OyYjMjk3MDI7IiBzdHlsZT0ic3Ryb2tlOiMxODE4MTg7c3Ryb2tlLXdpZHRoOjEuMDsiLz48cG9seWdvbiBmaWxsPSIjMTgxODE4IiBwb2ludHM9IjY4NiwxMDQuNDQxNyw2OTAsOTUuNDQxNyw2ODYsOTkuNDQxNyw2ODIsOTUuNDQxNyw2ODYsMTA0LjQ0MTciIHN0eWxlPSJzdHJva2U6IzE4MTgxODtzdHJva2Utd2lkdGg6MS4wOyIvPjwvZz48IS0tbGluayB1c2VyIHRvID8/Pz8tLT48ZyBpZD0ibGlua191c2VyXyYjMjc0Njg7JiMyNTE2MzsmIzMxNjQ5OyYjMjk3MDI7Ij48cGF0aCBkPSJNNzI0LjYsNDQuNTEgQzg2My41LDQ2LjYyIDEzMzIuNjQsNTYuMDggMTM5MSw4OC41IEMxNDA5LjE0NSw5OC41OCAxNDIyLjg1LDExNy4zMTI1IDE0MzIuMTYsMTMzLjk1IEMxNDM0LjQ4NzUsMTM4LjEwOTQgMTQzNi41NDAzLDE0Mi4xMzc4IDE0MzguMzE5MSwxNDUuODY3NCBDMTQzOC41NDE1LDE0Ni4zMzM2IDE0MzguNzU5NiwxNDYuNzk1MSAxNDM4Ljk3MzQsMTQ3LjI1MTYgIiBmaWxsPSJub25lIiBpZD0idXNlci10by0mIzI3NDY4OyYjMjUxNjM7JiMzMTY0OTsmIzI5NzAyOyIgc3R5bGU9InN0cm9rZTojMTgxODE4O3N0cm9rZS13aWR0aDoxLjA7Ii8+PHBvbHlnb24gZmlsbD0iIzE4MTgxOCIgcG9pbnRzPSIxNDM4Ljk3MzQsMTQ3LjI1MTYsMTQzOC43Nzg5LDEzNy40MDQ3LDE0MzYuODUyOSwxNDIuNzIzNiwxNDMxLjUzNCwxNDAuNzk3NSwxNDM4Ljk3MzQsMTQ3LjI1MTYiIHN0eWxlPSJzdHJva2U6IzE4MTgxODtzdHJva2Utd2lkdGg6MS4wOyIvPjwvZz48IS0tbGluayB1c2VyIHRvID8/Pz8/Py0tPjxnIGlkPSJsaW5rX3VzZXJfJiMyNzQ2ODsmIzIxMzMzOyYjMjc0Njg7JiMyNjM1NDsmIzMxNjQ5OyYjMjk3MDI7Ij48cGF0aCBkPSJNNjQ3LjMzLDU2LjY4IEM2MzIuMjMsNjMuNjUgNjE2LjMzLDczLjkyIDYwNyw4OC41IEM1NjcuNTQ1LDE1MC4xNSA1NjAuMzg3NSwyMzEuOTAyNSA1NjMuMjkyNSwyOTkuMDM1IEM1NjQuMDE4OCwzMTUuODE4MSA1NjUuMzczOSwzMzEuNjg3NSA1NjcuMDEwNSwzNDYuMTAwNiBDNTY3LjQxOTcsMzQ5LjcwMzkgNTY3Ljg0NjUsMzUzLjIxNjEgNTY4LjI4NTQsMzU2LjYyODkgQzU2OC4zOTUxLDM1Ny40ODIxIDU2OC41MDU2LDM1OC4zMjkgNTY4LjYxNjgsMzU5LjE2OTYgIiBmaWxsPSJub25lIiBpZD0idXNlci10by0mIzI3NDY4OyYjMjEzMzM7JiMyNzQ2ODsmIzI2MzU0OyYjMzE2NDk7JiMyOTcwMjsiIHN0eWxlPSJzdHJva2U6IzE4MTgxODtzdHJva2Utd2lkdGg6MS4wOyIvPjxwb2x5Z29uIGZpbGw9IiMxODE4MTgiIHBvaW50cz0iNTY4LjYxNjgsMzU5LjE2OTYsNTcxLjQwMjMsMzQ5LjcyMjksNTY3Ljk2MTMsMzU0LjIxMjgsNTYzLjQ3MTQsMzUwLjc3MTcsNTY4LjYxNjgsMzU5LjE2OTYiIHN0eWxlPSJzdHJva2U6IzE4MTgxODtzdHJva2Utd2lkdGg6MS4wOyIvPjwvZz48IS0tbGluayB1c2VyIHRvID8/Pz8tLT48ZyBpZD0ibGlua191c2VyXyYjMjc0Njg7JiMyNjM1NDsmIzMxNjQ5OyYjMjk3MDI7Ij48cGF0aCBkPSJNNzI0LjUsNDQuNCBDOTY1Ljg5LDQ2Ljk2IDIyNjEuNDcsNjEuOTQgMjI5Miw4OC41IEMyMzIwLjEyNSwxMTIuOTcgMjMzNC4xMjc1LDE5NS4yMzc1IDIzNDEuMDk3NSwyNzEuOTM1IEMyMzQyLjg0LDI5MS4xMDk0IDIzNDQuMTQzLDMwOS45MzU2IDIzNDUuMTE3MiwzMjcuNDIzNiBDMjM0NS42MDQzLDMzNi4xNjc2IDIzNDYuMDA5MiwzNDQuNTc3MSAyMzQ2LjM0NTgsMzUyLjUyODIgQzIzNDYuNDI5OSwzNTQuNTE2IDIzNDYuNTA5OCwzNTYuNDc1MSAyMzQ2LjU4NTYsMzU4LjQwMzcgIiBmaWxsPSJub25lIiBpZD0idXNlci10by0mIzI3NDY4OyYjMjYzNTQ7JiMzMTY0OTsmIzI5NzAyOyIgc3R5bGU9InN0cm9rZTojMTgxODE4O3N0cm9rZS13aWR0aDoxLjA7Ii8+PHBvbHlnb24gZmlsbD0iIzE4MTgxOCIgcG9pbnRzPSIyMzQ2LjU4NTYsMzU4LjQwMzcsMjM1MC4yMjksMzQ5LjI1MzUsMjM0Ni4zODkyLDM1My40MDc1LDIzNDIuMjM1MiwzNDkuNTY3NywyMzQ2LjU4NTYsMzU4LjQwMzciIHN0eWxlPSJzdHJva2U6IzE4MTgxODtzdHJva2Utd2lkdGg6MS4wOyIvPjwvZz48IS0tbGluayB1c2VyIHRvID8/Pz8tLT48ZyBpZD0ibGlua191c2VyXyYjMjk5OTI7JiMyNTE0MzsmIzMxNjQ5OyYjMjk3MDI7Ij48cGF0aCBkPSJNNzI0LjYxLDQzLjg0IEM5NDEuNjcsNDMuMTIgMjAxMS44OSw0MiAyMzM4LDg4LjUgQzI3ODAuNTcsMTUxLjYgMjk0Mi45OCw4OS43IDMzMTEsMzQzLjUgQzMzMjguMDksMzU1LjI4NSAzMzQxLjc2MjUsMzc0LjA3IDMzNTEuMzE4OCwzOTAuMzA4OCBDMzM1My43MDc4LDM5NC4zNjg0IDMzNTUuODM5NiwzOTguMjY5IDMzNTcuNzAzMiw0MDEuODYxMiBDMzM1Ny45MzYyLDQwMi4zMTAzIDMzNTguMTY0OSw0MDIuNzU0NSAzMzU4LjM4OTUsNDAzLjE5MzYgQzMzNTguNTAxOCw0MDMuNDEzMSAzMzU4LjYxMyw0MDMuNjMxNCAzMzU4LjcyMzEsNDAzLjg0ODQgQzMzNTguNzc4Miw0MDMuOTU2OSAzMzU4LjgzMzEsNDA0LjA2NSAzMzU4Ljg4NzYsNDA0LjE3MjggIiBmaWxsPSJub25lIiBpZD0idXNlci10by0mIzI5OTkyOyYjMjUxNDM7JiMzMTY0OTsmIzI5NzAyOyIgc3R5bGU9InN0cm9rZTojMTgxODE4O3N0cm9rZS13aWR0aDoxLjA7Ii8+PHBvbHlnb24gZmlsbD0iIzE4MTgxOCIgcG9pbnRzPSIzMzU4Ljg4NzYsNDA0LjE3MjgsMzM1OC4zOTM0LDM5NC4zMzY0LDMzNTYuNjMwMiwzOTkuNzExNCwzMzUxLjI1NTIsMzk3Ljk0ODIsMzM1OC44ODc2LDQwNC4xNzI4IiBzdHlsZT0ic3Ryb2tlOiMxODE4MTg7c3Ryb2tlLXdpZHRoOjEuMDsiLz48L2c+PCEtLWxpbmsgdXNlciB0byA/Pz8/LS0+PGcgaWQ9ImxpbmtfdXNlcl8mIzM1NzgwOyYjMzU3NzA7JiMzMTY0OTsmIzI5NzAyOyI+PHBhdGggZD0iTTY3Mi4wNyw4MC41MSBDNjU2LjM3LDEyNS4wNCA2MzMsMjAyLjkxIDYzMywyNzIgQzYzMywyNzIgNjMzLDI3MiA2MzMsNDI0IEM2MzMsNDc5LjM5NSA2MzUuNjY1LDU0MS41NSA2MzguMzcxMiw1OTAuMzkxMiBDNjM4LjcwOTUsNTk2LjQ5NjQgNjM5LjA0ODUsNjAyLjM5MzUgNjM5LjM4MjksNjA4LjA0MzQgQzYzOS40NjY1LDYwOS40NTU5IDYzOS41NDk4LDYxMC44NTI5IDYzOS42MzI4LDYxMi4yMzM5IEM2MzkuNjc0Myw2MTIuOTI0NCA2MzkuNzE1Nyw2MTMuNjEwOCA2MzkuNzU3LDYxNC4yOTMyICIgZmlsbD0ibm9uZSIgaWQ9InVzZXItdG8tJiMzNTc4MDsmIzM1NzcwOyYjMzE2NDk7JiMyOTcwMjsiIHN0eWxlPSJzdHJva2U6IzE4MTgxODtzdHJva2Utd2lkdGg6MS4wOyIvPjxwb2x5Z29uIGZpbGw9IiMxODE4MTgiIHBvaW50cz0iNjM5Ljc1Nyw2MTQuMjkzMiw2NDMuMjA2LDYwNS4wNjgsNjM5LjQ1NSw2MDkuMzAyMyw2MzUuMjIwNiw2MDUuNTUxMyw2MzkuNzU3LDYxNC4yOTMyIiBzdHlsZT0ic3Ryb2tlOiMxODE4MTg7c3Ryb2tlLXdpZHRoOjEuMDsiLz48L2c+PCEtLVNSQz1bWkxOQlJqRDA1RHRkQXdvaWdWVzNMY3B1WFlnQmdBZk84MU5LYlhMMlNnTWdZT2xUMUVXcDJNZlNnMTgxU1FtTWFIVUtkeWFUc3RfSGNSY3NTeVZOaFRZVS1weGRaNXRWczdzelJMTVp1dzVlSmZ2NldILXIzLTNaVVRNZ3hyWGxUcFF0QXZLdHpPck56UFVSTFhLY3ItMlRPNGhMVWJVbmg3S25NUzFYN21DcjNMblVuLUNoMVdaNzVaczdtRDNpOW5WVlE5dXBJbmVqM2RUX1lUQ20wendKUlNKOEJUeTYwc211V1VFWjJSSEU0SDBkZVBuQlRnQmJQMlZVck1yMHE0N1VlaXUtNnY5cU1nOHRMd0ZrcGhRTXEtIC1xV0p3QTBsc1B5MDg0YWd6N2VsejczRnRlelgwZGlISGVVejRXRDVDQXIwWmRXcWFEeGdtM0RPRWg3MzJ2b2syU0FtYThVbzdmQ2hkQW9xc2tTYllsM09GRlNjVS0wenZhM3czdnV1NFd6NDltS25SSjlMUTJxVmZlU0hhN0ZhaWZLUTRtTkdEZ0VxOGRwU2dxcVcwdGU4ZnFSeWZqQTBGR0o3TFVKYVVLRTZzVUxGMjZjdG92S1hSQUc1ZHQxNlFfZ0txV3Q5RDlES0RBMlNWLUs5UkpSWS1VS3BGQUppbm4yMl9fLU05bHA3dHBvMnNiRGFkWGJLc3dEd0tzb1NlQkRaNnhDazNKSTFwVllQLSAteDBVRWp3TEU4cGFPSFB2cGthWDlHTVFQclZQV1Q1UEtzWG9QWW8xVksxY0pCNGt6bmx6OHJEQ1ZyT092QkZzdVMzcW1tRkdXQzNlVTBRTzdCSVR3aUF1Szg0eURqU1FXVWI5Znh0Sk94SDBFTjA5NDVtbHVjdHVJUkhpUVNtQld3VGFPVWRleXRlLTNVU2RmNjYyZDRuWUZlTmRhSGJ2RTE1ZkViVUdGZi1YZE40cEg5c0kwRjQ3ekRBc3JqTVU1X29OMVpKLU5ZUXktc29wVlU5bzVnWkJTQzBfMTNNUmwwRzAwXS0tPjwvZz48L3N2Zz4=;" vertex="1" parent="1">
            <mxGeometry x="-1570" y="-100" width="4023" height="941" as="geometry" />
          </mxCell>
        </UserObject>
      </root>
    </mxGraphModel>
  </diagram>
</mxfile>
